<?xml version="1.0" standalone="no"?><svg xmlns:xlink="http://www.w3.org/1999/xlink" xmlns="http://www.w3.org/2000/svg" viewBox="0 0 1000 583.3390259604497" preserveAspectRatio="xMaxYMax slice"><g transform="scale(1.0350231120660924)"><rect x="0" y="0" width="966.1714285714286" height="563.6" fill="#ffffff"/><rect x="0" y="0" width="80.51428571428572" height="80.51428571428572" fill="#ffffff"/><rect x="0" y="0" width="40.26" height="40.26" fill="#fadccd"/><polygon points="0,0 40.26,0 40.26,40.26" fill="#45c4ff"/><rect x="40.26" y="0" width="40.26" height="40.26" fill="#ffd5f6"/><polygon points="40.26,0 80.52,0 40.26,40.26" fill="#fe2ed1"/><rect x="0" y="40.26" width="40.26" height="40.26" fill="#c8edff"/><polygon points="0,40.26 40.26,40.26 40.26,80.52" fill="#42c3ff"/><rect x="40.26" y="40.26" width="40.26" height="40.26" fill="#c8edff"/><polygon points="40.26,40.26 80.52,40.26 80.52,80.52" fill="#fe40d5"/><rect x="80.51428571428572" y="0" width="80.51428571428572" height="80.51428571428572" fill="#ffffff"/><rect x="80.51" y="0" width="40.26" height="40.26" fill="#fdf0ea"/><polygon points="80.51,0 120.77000000000001,0 120.77000000000001,40.26" fill="#fffdff"/><rect x="120.77" y="0" width="40.26" height="40.26" fill="#f0faff"/><polygon points="120.77,0 161.03,0 161.03,40.26" fill="#fe3bd4"/><rect x="80.51" y="40.26" width="40.26" height="40.26" fill="#fe74e0"/><polygon points="80.51,40.26 120.77000000000001,40.26 120.77000000000001,80.52" fill="#ff97e8"/><rect x="120.77" y="40.26" width="40.26" height="40.26" fill="#f5bfa5"/><polygon points="120.77,40.26 161.03,40.26 120.77,80.52" fill="#ffa9ec"/><rect x="161.03" y="0" width="80.51" height="80.51" fill="#ffe9fa"/><polygon points="161.03,0 241.54000000000002,0 241.54000000000002,80.51" fill="#b5e8ff"/><rect x="241.54" y="0" width="80.51" height="80.51" fill="#84d8ff"/><polygon points="241.54,0 322.05,0 322.05,80.51" fill="#f6c4ad"/><rect x="322.06" y="0" width="80.51" height="80.51" fill="#5bcbff"/><polygon points="322.06,0 402.57,0 322.06,80.51" fill="#42c3ff"/><rect x="402.5714285714286" y="0" width="80.51428571428572" height="80.51428571428572" fill="#ffffff"/><rect x="402.57" y="0" width="40.26" height="40.26" fill="#ef986f"/><polygon points="442.83,0 442.83,40.26 402.57,40.26" fill="#fe31d2"/><rect x="442.83" y="0" width="40.26" height="40.26" fill="#ffdff8"/><polygon points="442.83,0 483.09,0 483.09,40.26" fill="#ccefff"/><rect x="402.57" y="40.26" width="40.26" height="40.26" fill="#fe4ed8"/><polygon points="402.57,40.26 442.83,40.26 442.83,80.52" fill="#35bfff"/><rect x="442.83" y="40.26" width="40.26" height="40.26" fill="#fe0fca"/><polygon points="483.09,40.26 483.09,80.52 442.83,80.52" fill="#f8d1be"/><rect x="483.09" y="0" width="80.51" height="80.51" fill="#f3b090"/><polygon points="563.6,0 563.6,80.51 483.09,80.51" fill="#f3b193"/><rect x="563.6" y="0" width="80.51" height="80.51" fill="#ff9be9"/><polygon points="563.6,0 644.11,80.51 563.6,80.51" fill="#69cfff"/><rect x="644.1142857142858" y="0" width="80.51428571428572" height="80.51428571428572" fill="#ffffff"/><rect x="644.11" y="0" width="40.26" height="40.26" fill="#3ac0ff"/><polygon points="684.37,0 684.37,40.26 644.11,40.26" fill="#fe2bd0"/><rect x="684.37" y="0" width="40.26" height="40.26" fill="#f09b74"/><polygon points="684.37,0 724.63,40.26 684.37,40.26" fill="#5acbff"/><rect x="644.11" y="40.26" width="40.26" height="40.26" fill="#c0ebff"/><polygon points="644.11,40.26 684.37,40.26 644.11,80.52" fill="#fe2ad0"/><rect x="684.37" y="40.26" width="40.26" height="40.26" fill="#fe7de2"/><polygon points="684.37,40.26 724.63,40.26 724.63,80.52" fill="#f2aa88"/><rect x="724.63" y="0" width="80.51" height="80.51" fill="#d8f3ff"/><polygon points="724.63,0 805.14,80.51 724.63,80.51" fill="#a3e2ff"/><rect x="805.1428571428572" y="0" width="80.51428571428572" height="80.51428571428572" fill="#ffffff"/><rect x="805.14" y="0" width="40.26" height="40.26" fill="#fef9f6"/><polygon points="845.4,0 845.4,40.26 805.14,40.26" fill="#f2a986"/><rect x="845.4" y="0" width="40.26" height="40.26" fill="#4bc6ff"/><polygon points="845.4,0 885.66,0 885.66,40.26" fill="#f7cdb9"/><rect x="805.14" y="40.26" width="40.26" height="40.26" fill="#ffd8f6"/><polygon points="845.4,40.26 845.4,80.52 805.14,80.52" fill="#f4b395"/><rect x="845.4" y="40.26" width="40.26" height="40.26" fill="#f1a17c"/><polygon points="885.66,40.26 885.66,80.52 845.4,80.52" fill="#6fd1ff"/><rect x="885.66" y="0" width="80.51" height="80.51" fill="#fe06c8"/><polygon points="966.17,0 966.17,80.51 885.66,80.51" fill="#f8cebb"/><rect x="0" y="80.51428571428572" width="80.51428571428572" height="80.51428571428572" fill="#ffffff"/><rect x="0" y="80.51" width="40.26" height="40.26" fill="#fdf3ee"/><polygon points="0,80.51 40.26,80.51 40.26,120.77000000000001" fill="#fef9f6"/><rect x="40.26" y="80.51" width="40.26" height="40.26" fill="#46c4ff"/><polygon points="80.52,80.51 80.52,120.77000000000001 40.26,120.77000000000001" fill="#fbe2d6"/><rect x="0" y="120.77" width="40.26" height="40.26" fill="#f6fcff"/><polygon points="0,120.77 40.26,161.03 0,161.03" fill="#fbe2d7"/><rect x="40.26" y="120.77" width="40.26" height="40.26" fill="#9adfff"/><polygon points="80.52,120.77 80.52,161.03 40.26,161.03" fill="#45c4ff"/><rect x="80.51" y="80.51" width="80.51" height="80.51" fill="#f9d8c9"/><polygon points="80.51,80.51 161.02,80.51 161.02,161.02" fill="#ff96e8"/><rect x="161.02857142857144" y="80.51428571428572" width="80.51428571428572" height="80.51428571428572" fill="#ffffff"/><rect x="161.03" y="80.51" width="40.26" height="40.26" fill="#fe47d6"/><polygon points="201.29,80.51 201.29,120.77000000000001 161.03,120.77000000000001" fill="#d8f3ff"/><rect x="201.29" y="80.51" width="40.26" height="40.26" fill="#fe36d3"/><polygon points="201.29,80.51 241.54999999999998,120.77000000000001 201.29,120.77000000000001" fill="#fdf1eb"/><rect x="161.03" y="120.77" width="40.26" height="40.26" fill="#fe13cb"/><polygon points="161.03,120.77 201.29,161.03 161.03,161.03" fill="#b9e9ff"/><rect x="201.29" y="120.77" width="40.26" height="40.26" fill="#54c8ff"/><polygon points="241.54999999999998,120.77 241.54999999999998,161.03 201.29,161.03" fill="#fefbf9"/><rect x="241.54285714285714" y="80.51428571428572" width="80.51428571428572" height="80.51428571428572" fill="#ffffff"/><rect x="241.54" y="80.51" width="40.26" height="40.26" fill="#9de0ff"/><polygon points="241.54,80.51 281.8,120.77000000000001 241.54,120.77000000000001" fill="#f7cdba"/><rect x="281.8" y="80.51" width="40.26" height="40.26" fill="#f4b496"/><polygon points="281.8,80.51 322.06,120.77000000000001 281.8,120.77000000000001" fill="#86d9ff"/><rect x="241.54" y="120.77" width="40.26" height="40.26" fill="#f0faff"/><polygon points="241.54,120.77 281.8,120.77 241.54,161.03" fill="#f5bea4"/><rect x="281.8" y="120.77" width="40.26" height="40.26" fill="#e5f7ff"/><polygon points="281.8,120.77 322.06,161.03 281.8,161.03" fill="#39c0ff"/><rect x="322.0571428571429" y="80.51428571428572" width="80.51428571428572" height="80.51428571428572" fill="#ffffff"/><rect x="322.06" y="80.51" width="40.26" height="40.26" fill="#f8cfbc"/><polygon points="322.06,80.51 362.32,80.51 322.06,120.77000000000001" fill="#fe50d8"/><rect x="362.31" y="80.51" width="40.26" height="40.26" fill="#fbe3d8"/><polygon points="362.31,80.51 402.57,80.51 362.31,120.77000000000001" fill="#f5c0a7"/><rect x="322.06" y="120.77" width="40.26" height="40.26" fill="#f2ab8a"/><polygon points="322.06,120.77 362.32,120.77 362.32,161.03" fill="#fe67dd"/><rect x="362.31" y="120.77" width="40.26" height="40.26" fill="#fe7fe3"/><polygon points="362.31,120.77 402.57,120.77 402.57,161.03" fill="#4bc6ff"/><rect x="402.57" y="80.51" width="80.51" height="80.51" fill="#ffb1ee"/><polygon points="483.08,80.51 483.08,161.02 402.57,161.02" fill="#a7e3ff"/><rect x="483.0857142857143" y="80.51428571428572" width="80.51428571428572" height="80.51428571428572" fill="#ffffff"/><rect x="483.09" y="80.51" width="40.26" height="40.26" fill="#ffd5f6"/><polygon points="523.35,80.51 523.35,120.77000000000001 483.09,120.77000000000001" fill="#88d9ff"/><rect x="523.34" y="80.51" width="40.26" height="40.26" fill="#45c4ff"/><polygon points="523.34,80.51 563.6,120.77000000000001 523.34,120.77000000000001" fill="#fe4ed8"/><rect x="483.09" y="120.77" width="40.26" height="40.26" fill="#ffd4f5"/><polygon points="483.09,120.77 523.35,120.77 523.35,161.03" fill="#fcebe4"/><rect x="523.34" y="120.77" width="40.26" height="40.26" fill="#fbe6dc"/><polygon points="523.34,120.77 563.6,120.77 563.6,161.03" fill="#c5edff"/><rect x="563.6" y="80.51428571428572" width="80.51428571428572" height="80.51428571428572" fill="#ffffff"/><rect x="563.6" y="80.51" width="40.26" height="40.26" fill="#cbeeff"/><polygon points="603.86,80.51 603.86,120.77000000000001 563.6,120.77000000000001" fill="#87d9ff"/><rect x="603.86" y="80.51" width="40.26" height="40.26" fill="#e8f8ff"/><polygon points="603.86,80.51 644.12,80.51 603.86,120.77000000000001" fill="#f1a07b"/><rect x="563.6" y="120.77" width="40.26" height="40.26" fill="#f3ae8f"/><polygon points="563.6,120.77 603.86,120.77 563.6,161.03" fill="#fadbcd"/><rect x="603.86" y="120.77" width="40.26" height="40.26" fill="#95ddff"/><polygon points="603.86,120.77 644.12,120.77 644.12,161.03" fill="#fe25cf"/><rect x="644.11" y="80.51" width="80.51" height="80.51" fill="#34beff"/><polygon points="644.11,80.51 724.62,80.51 724.62,161.02" fill="#f1a27d"/><rect x="724.6285714285715" y="80.51428571428572" width="80.51428571428572" height="80.51428571428572" fill="#ffffff"/><rect x="724.63" y="80.51" width="40.26" height="40.26" fill="#f3fbff"/><polygon points="724.63,80.51 764.89,80.51 724.63,120.77000000000001" fill="#f1a582"/><rect x="764.89" y="80.51" width="40.26" height="40.26" fill="#ffd5f6"/><polygon points="764.89,80.51 805.15,80.51 805.15,120.77000000000001" fill="#dbf4ff"/><rect x="724.63" y="120.77" width="40.26" height="40.26" fill="#6dd0ff"/><polygon points="724.63,120.77 764.89,161.03 724.63,161.03" fill="#ffc3f2"/><rect x="764.89" y="120.77" width="40.26" height="40.26" fill="#f7ccb7"/><polygon points="764.89,120.77 805.15,120.77 764.89,161.03" fill="#f8d3c2"/><rect x="805.14" y="80.51" width="80.51" height="80.51" fill="#f8d0be"/><polygon points="805.14,80.51 885.65,80.51 805.14,161.02" fill="#e8f8ff"/><rect x="885.657142857143" y="80.51428571428572" width="80.51428571428572" height="80.51428571428572" fill="#ffffff"/><rect x="885.66" y="80.51" width="40.26" height="40.26" fill="#f9d5c4"/><polygon points="885.66,80.51 925.92,80.51 925.92,120.77000000000001" fill="#ff87e5"/><rect x="925.91" y="80.51" width="40.26" height="40.26" fill="#ffddf7"/><polygon points="925.91,80.51 966.17,80.51 966.17,120.77000000000001" fill="#f7cbb7"/><rect x="885.66" y="120.77" width="40.26" height="40.26" fill="#cff0ff"/><polygon points="885.66,120.77 925.92,120.77 925.92,161.03" fill="#fef9f7"/><rect x="925.91" y="120.77" width="40.26" height="40.26" fill="#ffe2f9"/><polygon points="966.17,120.77 966.17,161.03 925.91,161.03" fill="#f09c75"/><rect x="0" y="161.02857142857144" width="80.51428571428572" height="80.51428571428572" fill="#ffffff"/><rect x="0" y="161.03" width="40.26" height="40.26" fill="#62cdff"/><polygon points="40.26,161.03 40.26,201.29 0,201.29" fill="#e8f8ff"/><rect x="40.26" y="161.03" width="40.26" height="40.26" fill="#ffe5f9"/><polygon points="80.52,161.03 80.52,201.29 40.26,201.29" fill="#f6c6b0"/><rect x="0" y="201.29" width="40.26" height="40.26" fill="#ffc7f3"/><polygon points="40.26,201.29 40.26,241.54999999999998 0,241.54999999999998" fill="#fe7de2"/><rect x="40.26" y="201.29" width="40.26" height="40.26" fill="#f1a07a"/><polygon points="80.52,201.29 80.52,241.54999999999998 40.26,241.54999999999998" fill="#ffeffb"/><rect x="80.51" y="161.03" width="80.51" height="80.51" fill="#f5bda2"/><polygon points="80.51,161.03 161.02,241.54000000000002 80.51,241.54000000000002" fill="#6cd0ff"/><rect x="161.03" y="161.03" width="80.51" height="80.51" fill="#ffaced"/><polygon points="241.54000000000002,161.03 241.54000000000002,241.54000000000002 161.03,241.54000000000002" fill="#f1a582"/><rect x="241.54" y="161.03" width="80.51" height="80.51" fill="#fe3ed5"/><polygon points="322.05,161.03 322.05,241.54000000000002 241.54,241.54000000000002" fill="#f6c3ac"/><rect x="322.06" y="161.03" width="80.51" height="80.51" fill="#fe08c9"/><polygon points="402.57,161.03 402.57,241.54000000000002 322.06,241.54000000000002" fill="#b6e8ff"/><rect x="402.57" y="161.03" width="80.51" height="80.51" fill="#f7cdb9"/><polygon points="402.57,161.03 483.08,241.54000000000002 402.57,241.54000000000002" fill="#f9d6c6"/><rect x="483.09" y="161.03" width="80.51" height="80.51" fill="#ff81e3"/><polygon points="483.09,161.03 563.6,241.54000000000002 483.09,241.54000000000002" fill="#b9e9ff"/><rect x="563.6" y="161.03" width="80.51" height="80.51" fill="#70d1ff"/><polygon points="563.6,161.03 644.11,161.03 563.6,241.54000000000002" fill="#f6c1a8"/><rect x="644.1142857142858" y="161.02857142857144" width="80.51428571428572" height="80.51428571428572" fill="#ffffff"/><rect x="644.11" y="161.03" width="40.26" height="40.26" fill="#f7cdb9"/><polygon points="644.11,161.03 684.37,161.03 684.37,201.29" fill="#ff82e3"/><rect x="684.37" y="161.03" width="40.26" height="40.26" fill="#fef5f2"/><polygon points="684.37,161.03 724.63,201.29 684.37,201.29" fill="#ffd2f5"/><rect x="644.11" y="201.29" width="40.26" height="40.26" fill="#f8d2c0"/><polygon points="644.11,201.29 684.37,201.29 644.11,241.54999999999998" fill="#ffdff8"/><rect x="684.37" y="201.29" width="40.26" height="40.26" fill="#fe71e0"/><polygon points="684.37,201.29 724.63,201.29 684.37,241.54999999999998" fill="#ffddf8"/><rect x="724.6285714285715" y="161.02857142857144" width="80.51428571428572" height="80.51428571428572" fill="#ffffff"/><rect x="724.63" y="161.03" width="40.26" height="40.26" fill="#fffeff"/><polygon points="724.63,161.03 764.89,161.03 724.63,201.29" fill="#4dc6ff"/><rect x="764.89" y="161.03" width="40.26" height="40.26" fill="#f7ccb7"/><polygon points="764.89,161.03 805.15,201.29 764.89,201.29" fill="#8ddbff"/><rect x="724.63" y="201.29" width="40.26" height="40.26" fill="#ffa8ec"/><polygon points="724.63,201.29 764.89,241.54999999999998 724.63,241.54999999999998" fill="#50c7ff"/><rect x="764.89" y="201.29" width="40.26" height="40.26" fill="#ff8fe6"/><polygon points="764.89,201.29 805.15,201.29 805.15,241.54999999999998" fill="#74d3ff"/><rect x="805.14" y="161.03" width="80.51" height="80.51" fill="#fbe5db"/><polygon points="805.14,161.03 885.65,161.03 885.65,241.54000000000002" fill="#d1f0ff"/><rect x="885.657142857143" y="161.02857142857144" width="80.51428571428572" height="80.51428571428572" fill="#ffffff"/><rect x="885.66" y="161.03" width="40.26" height="40.26" fill="#fe27cf"/><polygon points="885.66,161.03 925.92,161.03 885.66,201.29" fill="#51c8ff"/><rect x="925.91" y="161.03" width="40.26" height="40.26" fill="#fff8fd"/><polygon points="925.91,161.03 966.17,161.03 925.91,201.29" fill="#f7c9b4"/><rect x="885.66" y="201.29" width="40.26" height="40.26" fill="#f5bda3"/><polygon points="925.92,201.29 925.92,241.54999999999998 885.66,241.54999999999998" fill="#92dcff"/><rect x="925.91" y="201.29" width="40.26" height="40.26" fill="#f09e78"/><polygon points="925.91,201.29 966.17,201.29 966.17,241.54999999999998" fill="#fe32d2"/><rect x="0" y="241.54285714285714" width="80.51428571428572" height="80.51428571428572" fill="#ffffff"/><rect x="0" y="241.54" width="40.26" height="40.26" fill="#38c0ff"/><polygon points="0,241.54 40.26,241.54 0,281.8" fill="#ace4ff"/><rect x="40.26" y="241.54" width="40.26" height="40.26" fill="#40c2ff"/><polygon points="40.26,241.54 80.52,241.54 80.52,281.8" fill="#fe4ad7"/><rect x="0" y="281.8" width="40.26" height="40.26" fill="#72d2ff"/><polygon points="0,281.8 40.26,281.8 40.26,322.06" fill="#93ddff"/><rect x="40.26" y="281.8" width="40.26" height="40.26" fill="#ffdef8"/><polygon points="40.26,281.8 80.52,281.8 80.52,322.06" fill="#def4ff"/><rect x="80.51" y="241.54" width="80.51" height="80.51" fill="#fe47d6"/><polygon points="80.51,241.54 161.02,322.05 80.51,322.05" fill="#fe1bcd"/><rect x="161.02857142857144" y="241.54285714285714" width="80.51428571428572" height="80.51428571428572" fill="#ffffff"/><rect x="161.03" y="241.54" width="40.26" height="40.26" fill="#ff81e3"/><polygon points="161.03,241.54 201.29,241.54 201.29,281.8" fill="#ffedfb"/><rect x="201.29" y="241.54" width="40.26" height="40.26" fill="#41c2ff"/><polygon points="201.29,241.54 241.54999999999998,241.54 241.54999999999998,281.8" fill="#edf9ff"/><rect x="161.03" y="281.8" width="40.26" height="40.26" fill="#d7f2ff"/><polygon points="161.03,281.8 201.29,281.8 201.29,322.06" fill="#e0f5ff"/><rect x="201.29" y="281.8" width="40.26" height="40.26" fill="#fceae2"/><polygon points="201.29,281.8 241.54999999999998,322.06 201.29,322.06" fill="#f09b73"/><rect x="241.54" y="241.54" width="80.51" height="80.51" fill="#b3e7ff"/><polygon points="322.05,241.54 322.05,322.05 241.54,322.05" fill="#d1f0ff"/><rect x="322.06" y="241.54" width="80.51" height="80.51" fill="#def4ff"/><polygon points="322.06,241.54 402.57,241.54 322.06,322.05" fill="#fe24cf"/><rect x="402.57" y="241.54" width="80.51" height="80.51" fill="#fe52d9"/><polygon points="402.57,241.54 483.08,322.05 402.57,322.05" fill="#ffb2ee"/><rect x="483.09" y="241.54" width="80.51" height="80.51" fill="#f2ab8a"/><polygon points="483.09,241.54 563.6,241.54 483.09,322.05" fill="#ffaded"/><rect x="563.6" y="241.54" width="80.51" height="80.51" fill="#f3ae8d"/><polygon points="644.11,241.54 644.11,322.05 563.6,322.05" fill="#ff97e8"/><rect x="644.1142857142858" y="241.54285714285714" width="80.51428571428572" height="80.51428571428572" fill="#ffffff"/><rect x="644.11" y="241.54" width="40.26" height="40.26" fill="#fe2ed1"/><polygon points="644.11,241.54 684.37,281.8 644.11,281.8" fill="#fff5fd"/><rect x="684.37" y="241.54" width="40.26" height="40.26" fill="#ef966d"/><polygon points="684.37,241.54 724.63,241.54 724.63,281.8" fill="#f5bfa6"/><rect x="644.11" y="281.8" width="40.26" height="40.26" fill="#3bc0ff"/><polygon points="684.37,281.8 684.37,322.06 644.11,322.06" fill="#f4b79b"/><rect x="684.37" y="281.8" width="40.26" height="40.26" fill="#abe4ff"/><polygon points="724.63,281.8 724.63,322.06 684.37,322.06" fill="#ffa0ea"/><rect x="724.6285714285715" y="241.54285714285714" width="80.51428571428572" height="80.51428571428572" fill="#ffffff"/><rect x="724.63" y="241.54" width="40.26" height="40.26" fill="#fe67de"/><polygon points="724.63,241.54 764.89,241.54 724.63,281.8" fill="#94ddff"/><rect x="764.89" y="241.54" width="40.26" height="40.26" fill="#f9d7c7"/><polygon points="764.89,241.54 805.15,241.54 764.89,281.8" fill="#f9d9ca"/><rect x="724.63" y="281.8" width="40.26" height="40.26" fill="#b3e7ff"/><polygon points="724.63,281.8 764.89,281.8 724.63,322.06" fill="#f2a987"/><rect x="764.89" y="281.8" width="40.26" height="40.26" fill="#fe62dc"/><polygon points="764.89,281.8 805.15,281.8 764.89,322.06" fill="#f7cbb6"/><rect x="805.14" y="241.54" width="80.51" height="80.51" fill="#f1a27d"/><polygon points="805.14,241.54 885.65,241.54 805.14,322.05" fill="#f8d2c0"/><rect x="885.66" y="241.54" width="80.51" height="80.51" fill="#fbe5db"/><polygon points="885.66,241.54 966.17,322.05 885.66,322.05" fill="#f1a07b"/><rect x="0" y="322.06" width="80.51" height="80.51" fill="#ffaeed"/><polygon points="80.51,322.06 80.51,402.57 0,402.57" fill="#83d7ff"/><rect x="80.51" y="322.06" width="80.51" height="80.51" fill="#88d9ff"/><polygon points="80.51,322.06 161.02,322.06 161.02,402.57" fill="#fe45d6"/><rect x="161.02857142857144" y="322.0571428571429" width="80.51428571428572" height="80.51428571428572" fill="#ffffff"/><rect x="161.03" y="322.06" width="40.26" height="40.26" fill="#ffa7ec"/><polygon points="161.03,322.06 201.29,322.06 161.03,362.32" fill="#fe41d5"/><rect x="201.29" y="322.06" width="40.26" height="40.26" fill="#ace4ff"/><polygon points="241.54999999999998,322.06 241.54999999999998,362.32 201.29,362.32" fill="#fceee7"/><rect x="161.03" y="362.31" width="40.26" height="40.26" fill="#fcebe3"/><polygon points="201.29,362.31 201.29,402.57 161.03,402.57" fill="#fe71e0"/><rect x="201.29" y="362.31" width="40.26" height="40.26" fill="#e3f6ff"/><polygon points="241.54999999999998,362.31 241.54999999999998,402.57 201.29,402.57" fill="#f6fcff"/><rect x="241.54285714285714" y="322.0571428571429" width="80.51428571428572" height="80.51428571428572" fill="#ffffff"/><rect x="241.54" y="322.06" width="40.26" height="40.26" fill="#f2ab8a"/><polygon points="241.54,322.06 281.8,362.32 241.54,362.32" fill="#ffecfb"/><rect x="281.8" y="322.06" width="40.26" height="40.26" fill="#aee5ff"/><polygon points="281.8,322.06 322.06,322.06 281.8,362.32" fill="#ffecfb"/><rect x="241.54" y="362.31" width="40.26" height="40.26" fill="#fe6bde"/><polygon points="241.54,362.31 281.8,362.31 241.54,402.57" fill="#ffe9fa"/><rect x="281.8" y="362.31" width="40.26" height="40.26" fill="#ffe9fa"/><polygon points="281.8,362.31 322.06,402.57 281.8,402.57" fill="#89daff"/><rect x="322.06" y="322.06" width="80.51" height="80.51" fill="#fe60dc"/><polygon points="322.06,322.06 402.57,402.57 322.06,402.57" fill="#ade5ff"/><rect x="402.57" y="322.06" width="80.51" height="80.51" fill="#fe63dd"/><polygon points="483.08,322.06 483.08,402.57 402.57,402.57" fill="#66ceff"/><rect x="483.09" y="322.06" width="80.51" height="80.51" fill="#ff96e8"/><polygon points="483.09,322.06 563.6,322.06 483.09,402.57" fill="#c2ecff"/><rect x="563.6" y="322.06" width="80.51" height="80.51" fill="#ff84e4"/><polygon points="563.6,322.06 644.11,322.06 563.6,402.57" fill="#fdf5f1"/><rect x="644.11" y="322.06" width="80.51" height="80.51" fill="#f5c0a7"/><polygon points="644.11,322.06 724.62,322.06 724.62,402.57" fill="#ffa7ec"/><rect x="724.63" y="322.06" width="80.51" height="80.51" fill="#51c7ff"/><polygon points="724.63,322.06 805.14,322.06 724.63,402.57" fill="#fe48d7"/><rect x="805.14" y="322.06" width="80.51" height="80.51" fill="#f7fcff"/><polygon points="805.14,322.06 885.65,322.06 805.14,402.57" fill="#3ac0ff"/><rect x="885.66" y="322.06" width="80.51" height="80.51" fill="#fe0cc9"/><polygon points="885.66,322.06 966.17,322.06 966.17,402.57" fill="#f2ac8b"/><rect x="0" y="402.57" width="80.51" height="80.51" fill="#fe43d5"/><polygon points="80.51,402.57 80.51,483.08 0,483.08" fill="#fe30d1"/><rect x="80.51428571428572" y="402.5714285714286" width="80.51428571428572" height="80.51428571428572" fill="#ffffff"/><rect x="80.51" y="402.57" width="40.26" height="40.26" fill="#fe6cdf"/><polygon points="120.77000000000001,402.57 120.77000000000001,442.83 80.51,442.83" fill="#f09d76"/><rect x="120.77" y="402.57" width="40.26" height="40.26" fill="#ffb9f0"/><polygon points="161.03,402.57 161.03,442.83 120.77,442.83" fill="#fe46d6"/><rect x="80.51" y="442.83" width="40.26" height="40.26" fill="#d4f1ff"/><polygon points="80.51,442.83 120.77000000000001,442.83 120.77000000000001,483.09" fill="#e2f6ff"/><rect x="120.77" y="442.83" width="40.26" height="40.26" fill="#36bfff"/><polygon points="161.03,442.83 161.03,483.09 120.77,483.09" fill="#fafdff"/><rect x="161.02857142857144" y="402.5714285714286" width="80.51428571428572" height="80.51428571428572" fill="#ffffff"/><rect x="161.03" y="402.57" width="40.26" height="40.26" fill="#ffcef4"/><polygon points="161.03,402.57 201.29,402.57 161.03,442.83" fill="#fe34d2"/><rect x="201.29" y="402.57" width="40.26" height="40.26" fill="#fe79e2"/><polygon points="201.29,402.57 241.54999999999998,402.57 241.54999999999998,442.83" fill="#bceaff"/><rect x="161.03" y="442.83" width="40.26" height="40.26" fill="#f09e77"/><polygon points="201.29,442.83 201.29,483.09 161.03,483.09" fill="#f3ad8c"/><rect x="201.29" y="442.83" width="40.26" height="40.26" fill="#ef966c"/><polygon points="201.29,442.83 241.54999999999998,442.83 201.29,483.09" fill="#f1a17c"/><rect x="241.54285714285714" y="402.5714285714286" width="80.51428571428572" height="80.51428571428572" fill="#ffffff"/><rect x="241.54" y="402.57" width="40.26" height="40.26" fill="#f7cbb6"/><polygon points="281.8,402.57 281.8,442.83 241.54,442.83" fill="#fbe5da"/><rect x="281.8" y="402.57" width="40.26" height="40.26" fill="#ef956b"/><polygon points="281.8,402.57 322.06,402.57 281.8,442.83" fill="#a1e1ff"/><rect x="241.54" y="442.83" width="40.26" height="40.26" fill="#88d9ff"/><polygon points="241.54,442.83 281.8,442.83 281.8,483.09" fill="#f9d6c6"/><rect x="281.8" y="442.83" width="40.26" height="40.26" fill="#f7cbb7"/><polygon points="281.8,442.83 322.06,442.83 281.8,483.09" fill="#95ddff"/><rect x="322.06" y="402.57" width="80.51" height="80.51" fill="#83d8ff"/><polygon points="322.06,402.57 402.57,483.08 322.06,483.08" fill="#fe22ce"/><rect x="402.5714285714286" y="402.5714285714286" width="80.51428571428572" height="80.51428571428572" fill="#ffffff"/><rect x="402.57" y="402.57" width="40.26" height="40.26" fill="#4fc7ff"/><polygon points="402.57,402.57 442.83,442.83 402.57,442.83" fill="#fe35d2"/><rect x="442.83" y="402.57" width="40.26" height="40.26" fill="#f09e78"/><polygon points="442.83,402.57 483.09,402.57 483.09,442.83" fill="#38c0ff"/><rect x="402.57" y="442.83" width="40.26" height="40.26" fill="#e5f7ff"/><polygon points="402.57,442.83 442.83,442.83 442.83,483.09" fill="#a6e3ff"/><rect x="442.83" y="442.83" width="40.26" height="40.26" fill="#fe27cf"/><polygon points="442.83,442.83 483.09,442.83 442.83,483.09" fill="#f3b090"/><rect x="483.0857142857143" y="402.5714285714286" width="80.51428571428572" height="80.51428571428572" fill="#ffffff"/><rect x="483.09" y="402.57" width="40.26" height="40.26" fill="#7ad5ff"/><polygon points="523.35,402.57 523.35,442.83 483.09,442.83" fill="#7bd5ff"/><rect x="523.34" y="402.57" width="40.26" height="40.26" fill="#6ed1ff"/><polygon points="523.34,402.57 563.6,402.57 563.6,442.83" fill="#f7ccb7"/><rect x="483.09" y="442.83" width="40.26" height="40.26" fill="#c2ecff"/><polygon points="483.09,442.83 523.35,442.83 523.35,483.09" fill="#ffdbf7"/><rect x="523.34" y="442.83" width="40.26" height="40.26" fill="#fe2bd0"/><polygon points="563.6,442.83 563.6,483.09 523.34,483.09" fill="#fe06c8"/><rect x="563.6" y="402.5714285714286" width="80.51428571428572" height="80.51428571428572" fill="#ffffff"/><rect x="563.6" y="402.57" width="40.26" height="40.26" fill="#fe2cd1"/><polygon points="563.6,402.57 603.86,402.57 563.6,442.83" fill="#fdf2ed"/><rect x="603.86" y="402.57" width="40.26" height="40.26" fill="#bbe9ff"/><polygon points="603.86,402.57 644.12,402.57 644.12,442.83" fill="#f09970"/><rect x="563.6" y="442.83" width="40.26" height="40.26" fill="#fe70df"/><polygon points="563.6,442.83 603.86,483.09 563.6,483.09" fill="#39c0ff"/><rect x="603.86" y="442.83" width="40.26" height="40.26" fill="#fffffe"/><polygon points="603.86,442.83 644.12,483.09 603.86,483.09" fill="#ff9eea"/><rect x="644.11" y="402.57" width="80.51" height="80.51" fill="#fe65dd"/><polygon points="644.11,402.57 724.62,402.57 644.11,483.08" fill="#fe0dca"/><rect x="724.63" y="402.57" width="80.51" height="80.51" fill="#fe54d9"/><polygon points="805.14,402.57 805.14,483.08 724.63,483.08" fill="#9bdfff"/><rect x="805.14" y="402.57" width="80.51" height="80.51" fill="#fcede6"/><polygon points="805.14,402.57 885.65,483.08 805.14,483.08" fill="#f6c3ab"/><rect x="885.657142857143" y="402.5714285714286" width="80.51428571428572" height="80.51428571428572" fill="#ffffff"/><rect x="885.66" y="402.57" width="40.26" height="40.26" fill="#fdf4f0"/><polygon points="885.66,402.57 925.92,402.57 925.92,442.83" fill="#bdeaff"/><rect x="925.91" y="402.57" width="40.26" height="40.26" fill="#f6c1a8"/><polygon points="966.17,402.57 966.17,442.83 925.91,442.83" fill="#ffa7ec"/><rect x="885.66" y="442.83" width="40.26" height="40.26" fill="#fe6ddf"/><polygon points="885.66,442.83 925.92,442.83 885.66,483.09" fill="#ff83e4"/><rect x="925.91" y="442.83" width="40.26" height="40.26" fill="#fbe5db"/><polygon points="925.91,442.83 966.17,442.83 925.91,483.09" fill="#f09870"/><rect x="0" y="483.0857142857143" width="80.51428571428572" height="80.51428571428572" fill="#ffffff"/><rect x="0" y="483.09" width="40.26" height="40.26" fill="#fe59da"/><polygon points="40.26,483.09 40.26,523.35 0,523.35" fill="#fcebe4"/><rect x="40.26" y="483.09" width="40.26" height="40.26" fill="#f6c5af"/><polygon points="40.26,483.09 80.52,483.09 80.52,523.35" fill="#5ccbff"/><rect x="0" y="523.34" width="40.26" height="40.26" fill="#c1ebff"/><polygon points="0,523.34 40.26,523.34 40.26,563.6" fill="#f6c2aa"/><rect x="40.26" y="523.34" width="40.26" height="40.26" fill="#f19f79"/><polygon points="80.52,523.34 80.52,563.6 40.26,563.6" fill="#ffc4f2"/><rect x="80.51" y="483.09" width="80.51" height="80.51" fill="#b0e6ff"/><polygon points="80.51,483.09 161.02,483.09 80.51,563.6" fill="#c5edff"/><rect x="161.03" y="483.09" width="80.51" height="80.51" fill="#fe2ed1"/><polygon points="161.03,483.09 241.54000000000002,563.6 161.03,563.6" fill="#ffe2f9"/><rect x="241.54285714285714" y="483.0857142857143" width="80.51428571428572" height="80.51428571428572" fill="#ffffff"/><rect x="241.54" y="483.09" width="40.26" height="40.26" fill="#fe2bd0"/><polygon points="281.8,483.09 281.8,523.35 241.54,523.35" fill="#f09a72"/><rect x="281.8" y="483.09" width="40.26" height="40.26" fill="#fe5adb"/><polygon points="281.8,483.09 322.06,483.09 281.8,523.35" fill="#f8ceba"/><rect x="241.54" y="523.34" width="40.26" height="40.26" fill="#f4b598"/><polygon points="241.54,523.34 281.8,523.34 281.8,563.6" fill="#58caff"/><rect x="281.8" y="523.34" width="40.26" height="40.26" fill="#c3ecff"/><polygon points="281.8,523.34 322.06,563.6 281.8,563.6" fill="#cbeeff"/><rect x="322.0571428571429" y="483.0857142857143" width="80.51428571428572" height="80.51428571428572" fill="#ffffff"/><rect x="322.06" y="483.09" width="40.26" height="40.26" fill="#ff82e3"/><polygon points="322.06,483.09 362.32,483.09 322.06,523.35" fill="#9cdfff"/><rect x="362.31" y="483.09" width="40.26" height="40.26" fill="#76d3ff"/><polygon points="362.31,483.09 402.57,483.09 402.57,523.35" fill="#f09e78"/><rect x="322.06" y="523.34" width="40.26" height="40.26" fill="#fe65dd"/><polygon points="362.32,523.34 362.32,563.6 322.06,563.6" fill="#e9f8ff"/><rect x="362.31" y="523.34" width="40.26" height="40.26" fill="#f2a785"/><polygon points="362.31,523.34 402.57,523.34 402.57,563.6" fill="#fdf1ec"/><rect x="402.5714285714286" y="483.0857142857143" width="80.51428571428572" height="80.51428571428572" fill="#ffffff"/><rect x="402.57" y="483.09" width="40.26" height="40.26" fill="#f9d9cb"/><polygon points="402.57,483.09 442.83,483.09 402.57,523.35" fill="#f3b293"/><rect x="442.83" y="483.09" width="40.26" height="40.26" fill="#ffe5f9"/><polygon points="483.09,483.09 483.09,523.35 442.83,523.35" fill="#fff4fd"/><rect x="402.57" y="523.34" width="40.26" height="40.26" fill="#79d4ff"/><polygon points="402.57,523.34 442.83,523.34 402.57,563.6" fill="#ef966c"/><rect x="442.83" y="523.34" width="40.26" height="40.26" fill="#a5e2ff"/><polygon points="483.09,523.34 483.09,563.6 442.83,563.6" fill="#81d7ff"/><rect x="483.0857142857143" y="483.0857142857143" width="80.51428571428572" height="80.51428571428572" fill="#ffffff"/><rect x="483.09" y="483.09" width="40.26" height="40.26" fill="#80d7ff"/><polygon points="483.09,483.09 523.35,523.35 483.09,523.35" fill="#f0faff"/><rect x="523.34" y="483.09" width="40.26" height="40.26" fill="#f09a72"/><polygon points="523.34,483.09 563.6,483.09 523.34,523.35" fill="#ffd6f6"/><rect x="483.09" y="523.34" width="40.26" height="40.26" fill="#f1a07a"/><polygon points="483.09,523.34 523.35,523.34 523.35,563.6" fill="#60ccff"/><rect x="523.34" y="523.34" width="40.26" height="40.26" fill="#fe05c8"/><polygon points="523.34,523.34 563.6,523.34 523.34,563.6" fill="#f2aa88"/><rect x="563.6" y="483.09" width="80.51" height="80.51" fill="#f09a72"/><polygon points="563.6,483.09 644.11,483.09 563.6,563.6" fill="#f5bea4"/><rect x="644.11" y="483.09" width="80.51" height="80.51" fill="#b0e6ff"/><polygon points="724.62,483.09 724.62,563.6 644.11,563.6" fill="#f1a581"/><rect x="724.6285714285715" y="483.0857142857143" width="80.51428571428572" height="80.51428571428572" fill="#ffffff"/><rect x="724.63" y="483.09" width="40.26" height="40.26" fill="#87d9ff"/><polygon points="764.89,483.09 764.89,523.35 724.63,523.35" fill="#79d4ff"/><rect x="764.89" y="483.09" width="40.26" height="40.26" fill="#ff92e7"/><polygon points="764.89,483.09 805.15,483.09 805.15,523.35" fill="#fe2dd1"/><rect x="724.63" y="523.34" width="40.26" height="40.26" fill="#fef7f4"/><polygon points="764.89,523.34 764.89,563.6 724.63,563.6" fill="#fe03c7"/><rect x="764.89" y="523.34" width="40.26" height="40.26" fill="#f1a17b"/><polygon points="764.89,523.34 805.15,523.34 764.89,563.6" fill="#fe05c8"/><rect x="805.14" y="483.09" width="80.51" height="80.51" fill="#fe5edc"/><polygon points="805.14,483.09 885.65,563.6 805.14,563.6" fill="#b0e6ff"/><rect x="885.657142857143" y="483.0857142857143" width="80.51428571428572" height="80.51428571428572" fill="#ffffff"/><rect x="885.66" y="483.09" width="40.26" height="40.26" fill="#ff82e4"/><polygon points="925.92,483.09 925.92,523.35 885.66,523.35" fill="#afe6ff"/><rect x="925.91" y="483.09" width="40.26" height="40.26" fill="#daf3ff"/><polygon points="966.17,483.09 966.17,523.35 925.91,523.35" fill="#c1ebff"/><rect x="885.66" y="523.34" width="40.26" height="40.26" fill="#38bfff"/><polygon points="925.92,523.34 925.92,563.6 885.66,563.6" fill="#ffe9fa"/><rect x="925.91" y="523.34" width="40.26" height="40.26" fill="#f8d2c0"/><polygon points="966.17,523.34 966.17,563.6 925.91,563.6" fill="#fadcce"/></g></svg>