<?xml version="1.0" standalone="no"?><svg xmlns:xlink="http://www.w3.org/1999/xlink" xmlns="http://www.w3.org/2000/svg" viewBox="0 0 1000 583.3388125452035" preserveAspectRatio="xMaxYMax slice"><g transform="scale(1.315010848839503)"><rect x="0" y="0" width="760.4571428571429" height="443.6" fill="#ffffff"/><rect x="0" y="0" width="63.37" height="63.37" fill="#1c1c1c"/><polygon points="63.37,0 63.37,63.37 0,63.37" fill="#9933ff"/><rect x="63.371428571428574" y="0" width="63.371428571428574" height="63.371428571428574" fill="#ffffff"/><rect x="63.37" y="0" width="31.69" height="31.69" fill="#1c1c1c"/><path d="M 63.37 0 A 31.69 31.69 0 0 1 95.06 31.69 L 63.37 31.69" fill="#9933ff"/><rect x="95.06" y="0" width="31.69" height="31.69" fill="#1c1c1c"/><path d="M 95.06 31.69 A 31.69 31.69 0 0 1  126.75 0 L 126.75 31.69" fill="#3ebe3c"/><rect x="63.37" y="31.69" width="31.69" height="31.69" fill="#9933ff"/><path d="M 63.37 63.38 A 31.69 31.69 0 0 0 95.06 31.69 L 63.37 31.69" fill="#1c1c1c"/><rect x="95.06" y="31.69" width="31.69" height="31.69" fill="#1c1c1c"/><path d="M 95.06 31.69 A 31.69 31.69 0 0 0 126.75 63.38 L 126.75 31.69" fill="#3ebe3c"/><rect x="126.74" y="0" width="63.37" height="63.37" fill="#1c1c1c"/><path d="M 126.74 0 A 63.37 63.37 0 0 1  190.10999999999999 63.37 L 126.74 0 A 63.37 63.37 0 0 0 190.10999999999999 63.37" fill="#9933ff"/><rect x="190.11" y="0" width="63.37" height="63.37" fill="#9933ff"/><polygon points="190.11,0 253.48000000000002,63.37 190.11,63.37" fill="#1c1c1c"/><rect x="253.49" y="0" width="63.37" height="63.37" fill="#9933ff"/><polygon points="253.49,0 316.86,0 316.86,63.37" fill="#3ebe3c"/><rect x="316.86" y="0" width="63.37" height="63.37" fill="#9933ff"/><polygon points="380.23,0 380.23,63.37 316.86,63.37" fill="#3ebe3c"/><rect x="380.22857142857146" y="0" width="63.371428571428574" height="63.371428571428574" fill="#ffffff"/><rect x="380.23" y="0" width="31.69" height="31.69" fill="#9933ff"/><polygon points="411.92,0 411.92,31.69 380.23,31.69" fill="#3ebe3c"/><rect x="411.91" y="0" width="31.69" height="31.69" fill="#1c1c1c"/><polygon points="411.91,0 443.6,31.69 411.91,31.69" fill="#1c1c1c"/><rect x="380.23" y="31.69" width="31.69" height="31.69" fill="#9933ff"/><polygon points="380.23,31.69 411.92,31.69 380.23,63.38" fill="#9933ff"/><rect x="411.91" y="31.69" width="31.69" height="31.69" fill="#1c1c1c"/><polygon points="411.91,31.69 443.6,31.69 443.6,63.38" fill="#9933ff"/><rect x="443.6" y="0" width="63.37" height="63.37" fill="#3ebe3c"/><rect x="443.6" y="0" width="63.37" height="63.37" fill="#3ebe3c"/><rect x="506.9714285714286" y="0" width="63.371428571428574" height="63.371428571428574" fill="#ffffff"/><rect x="506.97" y="0" width="31.69" height="31.69" fill="#3ebe3c"/><path d="M 506.97 31.69 A 31.69 31.69 0 0 0 538.6600000000001 0 L 506.97 0" fill="#3ebe3c"/><rect x="538.66" y="0" width="31.69" height="31.69" fill="#1c1c1c"/><path d="M 538.66 0 A 31.69 31.69 0 0 0 570.35 31.69 L 570.35 0" fill="#1c1c1c"/><rect x="506.97" y="31.69" width="31.69" height="31.69" fill="#3ebe3c"/><path d="M 506.97 31.69 A 31.69 31.69 0 0 1 538.6600000000001 63.38 L 506.97 63.38" fill="#9933ff"/><rect x="538.66" y="31.69" width="31.69" height="31.69" fill="#9933ff"/><path d="M 538.66 63.38 A 31.69 31.69 0 0 1  570.35 31.69 L 570.35 63.38" fill="#9933ff"/><rect x="570.3428571428572" y="0" width="63.371428571428574" height="63.371428571428574" fill="#ffffff"/><rect x="570.34" y="0" width="31.69" height="31.69" fill="#9933ff"/><polygon points="602.0300000000001,0 602.0300000000001,31.69 570.34,31.69" fill="#3ebe3c"/><rect x="602.03" y="0" width="31.69" height="31.69" fill="#3ebe3c"/><polygon points="602.03,0 633.72,31.69 602.03,31.69" fill="#1c1c1c"/><rect x="570.34" y="31.69" width="31.69" height="31.69" fill="#3ebe3c"/><polygon points="570.34,31.69 602.0300000000001,31.69 602.0300000000001,63.38" fill="#9933ff"/><rect x="602.03" y="31.69" width="31.69" height="31.69" fill="#3ebe3c"/><polygon points="602.03,31.69 633.72,31.69 602.03,63.38" fill="#9933ff"/><rect x="633.71" y="0" width="63.37" height="63.37" fill="#3ebe3c"/><rect x="633.71" y="0" width="63.37" height="63.37" fill="#3ebe3c"/><rect x="697.0857142857143" y="0" width="63.371428571428574" height="63.371428571428574" fill="#ffffff"/><rect x="697.09" y="0" width="31.69" height="31.69" fill="#9933ff"/><polygon points="728.7800000000001,0 728.7800000000001,31.69 697.09,31.69" fill="#9933ff"/><rect x="728.77" y="0" width="31.69" height="31.69" fill="#9933ff"/><polygon points="728.77,0 760.46,0 728.77,31.69" fill="#9933ff"/><rect x="697.09" y="31.69" width="31.69" height="31.69" fill="#3ebe3c"/><polygon points="697.09,31.69 728.7800000000001,31.69 728.7800000000001,63.38" fill="#1c1c1c"/><rect x="728.77" y="31.69" width="31.69" height="31.69" fill="#9933ff"/><polygon points="728.77,31.69 760.46,63.38 728.77,63.38" fill="#1c1c1c"/><rect x="0" y="63.37" width="63.37" height="63.37" fill="#1c1c1c"/><path d="M 0 126.74 A 63.37 63.37 0 0 1  63.37 63.37 L 0 126.74 A 63.37 63.37 0 0 0 63.37 63.37" fill="#9933ff"/><rect x="63.371428571428574" y="63.371428571428574" width="63.371428571428574" height="63.371428571428574" fill="#ffffff"/><rect x="63.37" y="63.37" width="31.69" height="31.69" fill="#1c1c1c"/><polygon points="95.06,63.37 95.06,95.06 63.37,95.06" fill="#1c1c1c"/><rect x="95.06" y="63.37" width="31.69" height="31.69" fill="#3ebe3c"/><polygon points="95.06,63.37 126.75,63.37 95.06,95.06" fill="#9933ff"/><rect x="63.37" y="95.06" width="31.69" height="31.69" fill="#9933ff"/><polygon points="63.37,95.06 95.06,95.06 95.06,126.75" fill="#1c1c1c"/><rect x="95.06" y="95.06" width="31.69" height="31.69" fill="#9933ff"/><polygon points="95.06,95.06 126.75,126.75 95.06,126.75" fill="#3ebe3c"/><rect x="126.74285714285715" y="63.371428571428574" width="63.371428571428574" height="63.371428571428574" fill="#ffffff"/><rect x="126.74" y="63.37" width="31.69" height="31.69" fill="#3ebe3c"/><path d="M 126.74 95.06 A 31.69 31.69 0 0 0 158.43 63.37 L 126.74 63.37" fill="#1c1c1c"/><rect x="158.43" y="63.37" width="31.69" height="31.69" fill="#3ebe3c"/><path d="M 158.43 63.37 A 31.69 31.69 0 0 0 190.12 95.06 L 190.12 63.37" fill="#3ebe3c"/><rect x="126.74" y="95.06" width="31.69" height="31.69" fill="#3ebe3c"/><path d="M 126.74 95.06 A 31.69 31.69 0 0 1 158.43 126.75 L 126.74 126.75" fill="#3ebe3c"/><rect x="158.43" y="95.06" width="31.69" height="31.69" fill="#9933ff"/><path d="M 158.43 126.75 A 31.69 31.69 0 0 1  190.12 95.06 L 190.12 126.75" fill="#3ebe3c"/><rect x="190.11428571428573" y="63.371428571428574" width="63.371428571428574" height="63.371428571428574" fill="#ffffff"/><rect x="190.11" y="63.37" width="31.69" height="31.69" fill="#9933ff"/><circle cx="205.955" cy="79.215" r="15.845" fill="#3ebe3c"/><rect x="221.8" y="63.37" width="31.69" height="31.69" fill="#1c1c1c"/><rect x="221.8" y="63.37" width="31.69" height="31.69" fill="#9933ff"/><rect x="190.11" y="95.06" width="31.69" height="31.69" fill="#3ebe3c"/><circle cx="205.955" cy="110.905" r="15.845" fill="#3ebe3c"/><rect x="221.8" y="95.06" width="31.69" height="31.69" fill="#9933ff"/><rect x="221.8" y="95.06" width="31.69" height="31.69" fill="#3ebe3c"/><rect x="253.4857142857143" y="63.371428571428574" width="63.371428571428574" height="63.371428571428574" fill="#ffffff"/><rect x="253.49" y="63.37" width="31.69" height="31.69" fill="#3ebe3c"/><polygon points="285.18,63.37 285.18,95.06 253.49,95.06" fill="#3ebe3c"/><rect x="285.17" y="63.37" width="31.69" height="31.69" fill="#3ebe3c"/><polygon points="285.17,63.37 316.86,63.37 285.17,95.06" fill="#3ebe3c"/><rect x="253.49" y="95.06" width="31.69" height="31.69" fill="#1c1c1c"/><polygon points="253.49,95.06 285.18,95.06 285.18,126.75" fill="#3ebe3c"/><rect x="285.17" y="95.06" width="31.69" height="31.69" fill="#9933ff"/><polygon points="285.17,95.06 316.86,126.75 285.17,126.75" fill="#3ebe3c"/><rect x="316.8571428571429" y="63.371428571428574" width="63.371428571428574" height="63.371428571428574" fill="#ffffff"/><rect x="316.86" y="63.37" width="31.69" height="31.69" fill="#3ebe3c"/><path d="M 316.86 95.06 A 31.69 31.69 0 0 1  348.55 63.37 L 348.55 95.06" fill="#9933ff"/><rect x="348.54" y="63.37" width="31.69" height="31.69" fill="#9933ff"/><path d="M 348.54 63.37 A 31.69 31.69 0 0 1 380.23 95.06 L 348.54 95.06" fill="#9933ff"/><rect x="316.86" y="95.06" width="31.69" height="31.69" fill="#1c1c1c"/><path d="M 316.86 95.06 A 31.69 31.69 0 0 0 348.55 126.75 L 348.55 95.06" fill="#3ebe3c"/><rect x="348.54" y="95.06" width="31.69" height="31.69" fill="#3ebe3c"/><path d="M 348.54 126.75 A 31.69 31.69 0 0 0 380.23 95.06 L 348.54 95.06" fill="#1c1c1c"/><rect x="380.23" y="63.37" width="63.37" height="63.37" fill="#9933ff"/><rect x="380.23" y="63.37" width="63.37" height="63.37" fill="#3ebe3c"/><rect x="443.6" y="63.37" width="63.37" height="63.37" fill="#1c1c1c"/><rect x="443.6" y="63.37" width="63.37" height="63.37" fill="#1c1c1c"/><rect x="506.97" y="63.37" width="63.37" height="63.37" fill="#1c1c1c"/><rect x="506.97" y="63.37" width="63.37" height="63.37" fill="#1c1c1c"/><rect x="570.3428571428572" y="63.371428571428574" width="63.371428571428574" height="63.371428571428574" fill="#ffffff"/><rect x="570.34" y="63.37" width="31.69" height="31.69" fill="#3ebe3c"/><polygon points="602.0300000000001,63.37 602.0300000000001,95.06 570.34,95.06" fill="#1c1c1c"/><rect x="602.03" y="63.37" width="31.69" height="31.69" fill="#9933ff"/><polygon points="602.03,63.37 633.72,95.06 602.03,95.06" fill="#1c1c1c"/><rect x="570.34" y="95.06" width="31.69" height="31.69" fill="#1c1c1c"/><polygon points="570.34,95.06 602.0300000000001,95.06 570.34,126.75" fill="#3ebe3c"/><rect x="602.03" y="95.06" width="31.69" height="31.69" fill="#9933ff"/><polygon points="602.03,95.06 633.72,95.06 633.72,126.75" fill="#9933ff"/><rect x="633.7142857142858" y="63.371428571428574" width="63.371428571428574" height="63.371428571428574" fill="#ffffff"/><rect x="633.71" y="63.37" width="31.69" height="31.69" fill="#1c1c1c"/><path d="M 633.71 95.06 A 31.69 31.69 0 0 0 665.4000000000001 63.37 L 633.71 63.37" fill="#9933ff"/><rect x="665.4" y="63.37" width="31.69" height="31.69" fill="#3ebe3c"/><path d="M 665.4 63.37 A 31.69 31.69 0 0 0 697.09 95.06 L 697.09 63.37" fill="#9933ff"/><rect x="633.71" y="95.06" width="31.69" height="31.69" fill="#3ebe3c"/><path d="M 633.71 95.06 A 31.69 31.69 0 0 1 665.4000000000001 126.75 L 633.71 126.75" fill="#9933ff"/><rect x="665.4" y="95.06" width="31.69" height="31.69" fill="#1c1c1c"/><path d="M 665.4 126.75 A 31.69 31.69 0 0 1  697.09 95.06 L 697.09 126.75" fill="#9933ff"/><rect x="697.09" y="63.37" width="63.37" height="63.37" fill="#9933ff"/><rect x="697.09" y="63.37" width="63.37" height="63.37" fill="#3ebe3c"/><rect x="0" y="126.74" width="63.37" height="63.37" fill="#3ebe3c"/><path d="M 0 190.10999999999999 A 63.37 63.37 0 0 1  63.37 126.74 L 63.37 190.10999999999999" fill="#1c1c1c"/><rect x="63.371428571428574" y="126.74285714285715" width="63.371428571428574" height="63.371428571428574" fill="#ffffff"/><rect x="63.37" y="126.74" width="31.69" height="31.69" fill="#3ebe3c"/><path d="M 63.37 126.74 A 31.69 31.69 0 0 1 95.06 158.43 L 63.37 158.43" fill="#3ebe3c"/><rect x="95.06" y="126.74" width="31.69" height="31.69" fill="#9933ff"/><path d="M 95.06 158.43 A 31.69 31.69 0 0 1  126.75 126.74 L 126.75 158.43" fill="#1c1c1c"/><rect x="63.37" y="158.43" width="31.69" height="31.69" fill="#9933ff"/><path d="M 63.37 190.12 A 31.69 31.69 0 0 0 95.06 158.43 L 63.37 158.43" fill="#9933ff"/><rect x="95.06" y="158.43" width="31.69" height="31.69" fill="#3ebe3c"/><path d="M 95.06 158.43 A 31.69 31.69 0 0 0 126.75 190.12 L 126.75 158.43" fill="#9933ff"/><rect x="126.74" y="126.74" width="63.37" height="63.37" fill="#3ebe3c"/><path d="M 126.74 126.74 A 63.37 63.37 0 0 1  190.10999999999999 190.10999999999999 L 126.74 126.74 A 63.37 63.37 0 0 0 190.10999999999999 190.10999999999999" fill="#1c1c1c"/><rect x="190.11" y="126.74" width="63.37" height="63.37" fill="#3ebe3c"/><path d="M 190.11 190.10999999999999 A 63.37 63.37 0 0 1  253.48000000000002 126.74 L 190.11 190.10999999999999 A 63.37 63.37 0 0 0 253.48000000000002 126.74" fill="#1c1c1c"/><rect x="253.49" y="126.74" width="63.37" height="63.37" fill="#1c1c1c"/><rect x="253.49" y="126.74" width="63.37" height="63.37" fill="#9933ff"/><rect x="316.86" y="126.74" width="63.37" height="63.37" fill="#1c1c1c"/><rect x="316.86" y="126.74" width="63.37" height="63.37" fill="#3ebe3c"/><rect x="380.22857142857146" y="126.74285714285715" width="63.371428571428574" height="63.371428571428574" fill="#ffffff"/><rect x="380.23" y="126.74" width="31.69" height="31.69" fill="#3ebe3c"/><circle cx="396.07500000000005" cy="142.585" r="15.845" fill="#1c1c1c"/><rect x="411.91" y="126.74" width="31.69" height="31.69" fill="#1c1c1c"/><rect x="411.91" y="126.74" width="31.69" height="31.69" fill="#9933ff"/><rect x="380.23" y="158.43" width="31.69" height="31.69" fill="#3ebe3c"/><circle cx="396.07500000000005" cy="174.275" r="15.845" fill="#3ebe3c"/><rect x="411.91" y="158.43" width="31.69" height="31.69" fill="#1c1c1c"/><rect x="411.91" y="158.43" width="31.69" height="31.69" fill="#1c1c1c"/><rect x="443.6" y="126.74285714285715" width="63.371428571428574" height="63.371428571428574" fill="#ffffff"/><rect x="443.6" y="126.74" width="31.69" height="31.69" fill="#9933ff"/><path d="M 443.6 126.74 A 31.69 31.69 0 0 1 475.29 158.43 L 443.6 158.43" fill="#1c1c1c"/><rect x="475.29" y="126.74" width="31.69" height="31.69" fill="#9933ff"/><path d="M 475.29 158.43 A 31.69 31.69 0 0 1  506.98 126.74 L 506.98 158.43" fill="#1c1c1c"/><rect x="443.6" y="158.43" width="31.69" height="31.69" fill="#1c1c1c"/><path d="M 443.6 190.12 A 31.69 31.69 0 0 0 475.29 158.43 L 443.6 158.43" fill="#1c1c1c"/><rect x="475.29" y="158.43" width="31.69" height="31.69" fill="#3ebe3c"/><path d="M 475.29 158.43 A 31.69 31.69 0 0 0 506.98 190.12 L 506.98 158.43" fill="#9933ff"/><rect x="506.9714285714286" y="126.74285714285715" width="63.371428571428574" height="63.371428571428574" fill="#ffffff"/><rect x="506.97" y="126.74" width="31.69" height="31.69" fill="#1c1c1c"/><polygon points="538.6600000000001,126.74 538.6600000000001,158.43 506.97,158.43" fill="#1c1c1c"/><rect x="538.66" y="126.74" width="31.69" height="31.69" fill="#1c1c1c"/><polygon points="538.66,126.74 570.35,158.43 538.66,158.43" fill="#9933ff"/><rect x="506.97" y="158.43" width="31.69" height="31.69" fill="#1c1c1c"/><polygon points="506.97,158.43 538.6600000000001,158.43 506.97,190.12" fill="#3ebe3c"/><rect x="538.66" y="158.43" width="31.69" height="31.69" fill="#9933ff"/><polygon points="538.66,158.43 570.35,158.43 570.35,190.12" fill="#1c1c1c"/><rect x="570.34" y="126.74" width="63.37" height="63.37" fill="#9933ff"/><polygon points="570.34,126.74 633.71,126.74 570.34,190.10999999999999" fill="#9933ff"/><rect x="633.7142857142858" y="126.74285714285715" width="63.371428571428574" height="63.371428571428574" fill="#ffffff"/><rect x="633.71" y="126.74" width="31.69" height="31.69" fill="#9933ff"/><circle cx="649.5550000000001" cy="142.585" r="15.845" fill="#9933ff"/><rect x="665.4" y="126.74" width="31.69" height="31.69" fill="#9933ff"/><rect x="665.4" y="126.74" width="31.69" height="31.69" fill="#3ebe3c"/><rect x="633.71" y="158.43" width="31.69" height="31.69" fill="#1c1c1c"/><circle cx="649.5550000000001" cy="174.275" r="15.845" fill="#1c1c1c"/><rect x="665.4" y="158.43" width="31.69" height="31.69" fill="#3ebe3c"/><rect x="665.4" y="158.43" width="31.69" height="31.69" fill="#3ebe3c"/><rect x="697.0857142857143" y="126.74285714285715" width="63.371428571428574" height="63.371428571428574" fill="#ffffff"/><rect x="697.09" y="126.74" width="31.69" height="31.69" fill="#3ebe3c"/><circle cx="712.9350000000001" cy="142.585" r="15.845" fill="#1c1c1c"/><rect x="728.77" y="126.74" width="31.69" height="31.69" fill="#3ebe3c"/><rect x="728.77" y="126.74" width="31.69" height="31.69" fill="#1c1c1c"/><rect x="697.09" y="158.43" width="31.69" height="31.69" fill="#3ebe3c"/><circle cx="712.9350000000001" cy="174.275" r="15.845" fill="#9933ff"/><rect x="728.77" y="158.43" width="31.69" height="31.69" fill="#9933ff"/><rect x="728.77" y="158.43" width="31.69" height="31.69" fill="#3ebe3c"/><rect x="0" y="190.11" width="63.37" height="63.37" fill="#9933ff"/><path d="M 0 190.11 A 63.37 63.37 0 0 1 63.37 253.48000000000002 L 0 253.48000000000002" fill="#1c1c1c"/><rect x="63.37" y="190.11" width="63.37" height="63.37" fill="#1c1c1c"/><rect x="63.37" y="190.11" width="63.37" height="63.37" fill="#3ebe3c"/><rect x="126.74285714285715" y="190.11428571428573" width="63.371428571428574" height="63.371428571428574" fill="#ffffff"/><rect x="126.74" y="190.11" width="31.69" height="31.69" fill="#1c1c1c"/><polygon points="158.43,190.11 158.43,221.8 126.74,221.8" fill="#1c1c1c"/><rect x="158.43" y="190.11" width="31.69" height="31.69" fill="#3ebe3c"/><polygon points="158.43,190.11 190.12,221.8 158.43,221.8" fill="#3ebe3c"/><rect x="126.74" y="221.8" width="31.69" height="31.69" fill="#9933ff"/><polygon points="126.74,221.8 158.43,221.8 126.74,253.49" fill="#3ebe3c"/><rect x="158.43" y="221.8" width="31.69" height="31.69" fill="#3ebe3c"/><polygon points="158.43,221.8 190.12,221.8 190.12,253.49" fill="#9933ff"/><rect x="190.11428571428573" y="190.11428571428573" width="63.371428571428574" height="63.371428571428574" fill="#ffffff"/><rect x="190.11" y="190.11" width="31.69" height="31.69" fill="#9933ff"/><path d="M 190.11 221.8 A 31.69 31.69 0 0 1  221.8 190.11 L 221.8 221.8" fill="#9933ff"/><rect x="221.8" y="190.11" width="31.69" height="31.69" fill="#1c1c1c"/><path d="M 221.8 190.11 A 31.69 31.69 0 0 1 253.49 221.8 L 221.8 221.8" fill="#3ebe3c"/><rect x="190.11" y="221.8" width="31.69" height="31.69" fill="#3ebe3c"/><path d="M 190.11 221.8 A 31.69 31.69 0 0 0 221.8 253.49 L 221.8 221.8" fill="#3ebe3c"/><rect x="221.8" y="221.8" width="31.69" height="31.69" fill="#9933ff"/><path d="M 221.8 253.49 A 31.69 31.69 0 0 0 253.49 221.8 L 221.8 221.8" fill="#9933ff"/><rect x="253.49" y="190.11" width="63.37" height="63.37" fill="#9933ff"/><rect x="253.49" y="190.11" width="63.37" height="63.37" fill="#1c1c1c"/><rect x="316.8571428571429" y="190.11428571428573" width="63.371428571428574" height="63.371428571428574" fill="#ffffff"/><rect x="316.86" y="190.11" width="31.69" height="31.69" fill="#9933ff"/><path d="M 316.86 221.8 A 31.69 31.69 0 0 1  348.55 190.11 L 348.55 221.8" fill="#3ebe3c"/><rect x="348.54" y="190.11" width="31.69" height="31.69" fill="#9933ff"/><path d="M 348.54 190.11 A 31.69 31.69 0 0 1 380.23 221.8 L 348.54 221.8" fill="#1c1c1c"/><rect x="316.86" y="221.8" width="31.69" height="31.69" fill="#1c1c1c"/><path d="M 316.86 221.8 A 31.69 31.69 0 0 0 348.55 253.49 L 348.55 221.8" fill="#3ebe3c"/><rect x="348.54" y="221.8" width="31.69" height="31.69" fill="#1c1c1c"/><path d="M 348.54 253.49 A 31.69 31.69 0 0 0 380.23 221.8 L 348.54 221.8" fill="#9933ff"/><rect x="380.23" y="190.11" width="63.37" height="63.37" fill="#3ebe3c"/><path d="M 380.23 190.11 A 63.37 63.37 0 0 0 443.6 253.48000000000002 L 443.6 190.11" fill="#1c1c1c"/><rect x="443.6" y="190.11" width="63.37" height="63.37" fill="#1c1c1c"/><rect x="443.6" y="190.11" width="63.37" height="63.37" fill="#1c1c1c"/><rect x="506.9714285714286" y="190.11428571428573" width="63.371428571428574" height="63.371428571428574" fill="#ffffff"/><rect x="506.97" y="190.11" width="31.69" height="31.69" fill="#1c1c1c"/><path d="M 506.97 190.11 A 31.69 31.69 0 0 0 538.6600000000001 221.8 L 538.6600000000001 190.11" fill="#1c1c1c"/><rect x="538.66" y="190.11" width="31.69" height="31.69" fill="#3ebe3c"/><path d="M 538.66 221.8 A 31.69 31.69 0 0 0 570.35 190.11 L 538.66 190.11" fill="#9933ff"/><rect x="506.97" y="221.8" width="31.69" height="31.69" fill="#9933ff"/><path d="M 506.97 253.49 A 31.69 31.69 0 0 1  538.6600000000001 221.8 L 538.6600000000001 253.49" fill="#1c1c1c"/><rect x="538.66" y="221.8" width="31.69" height="31.69" fill="#1c1c1c"/><path d="M 538.66 221.8 A 31.69 31.69 0 0 1 570.35 253.49 L 538.66 253.49" fill="#1c1c1c"/><rect x="570.3428571428572" y="190.11428571428573" width="63.371428571428574" height="63.371428571428574" fill="#ffffff"/><rect x="570.34" y="190.11" width="31.69" height="31.69" fill="#3ebe3c"/><polygon points="602.0300000000001,190.11 602.0300000000001,221.8 570.34,221.8" fill="#3ebe3c"/><rect x="602.03" y="190.11" width="31.69" height="31.69" fill="#3ebe3c"/><polygon points="602.03,190.11 633.72,221.8 602.03,221.8" fill="#9933ff"/><rect x="570.34" y="221.8" width="31.69" height="31.69" fill="#1c1c1c"/><polygon points="570.34,221.8 602.0300000000001,221.8 570.34,253.49" fill="#1c1c1c"/><rect x="602.03" y="221.8" width="31.69" height="31.69" fill="#3ebe3c"/><polygon points="602.03,221.8 633.72,221.8 633.72,253.49" fill="#1c1c1c"/><rect x="633.7142857142858" y="190.11428571428573" width="63.371428571428574" height="63.371428571428574" fill="#ffffff"/><rect x="633.71" y="190.11" width="31.69" height="31.69" fill="#1c1c1c"/><polygon points="665.4000000000001,190.11 665.4000000000001,221.8 633.71,221.8" fill="#1c1c1c"/><rect x="665.4" y="190.11" width="31.69" height="31.69" fill="#1c1c1c"/><polygon points="665.4,190.11 697.09,190.11 665.4,221.8" fill="#3ebe3c"/><rect x="633.71" y="221.8" width="31.69" height="31.69" fill="#3ebe3c"/><polygon points="633.71,221.8 665.4000000000001,221.8 665.4000000000001,253.49" fill="#1c1c1c"/><rect x="665.4" y="221.8" width="31.69" height="31.69" fill="#3ebe3c"/><polygon points="665.4,221.8 697.09,253.49 665.4,253.49" fill="#3ebe3c"/><rect x="697.0857142857143" y="190.11428571428573" width="63.371428571428574" height="63.371428571428574" fill="#ffffff"/><rect x="697.09" y="190.11" width="31.69" height="31.69" fill="#9933ff"/><circle cx="712.9350000000001" cy="205.955" r="15.845" fill="#9933ff"/><rect x="728.77" y="190.11" width="31.69" height="31.69" fill="#1c1c1c"/><rect x="728.77" y="190.11" width="31.69" height="31.69" fill="#1c1c1c"/><rect x="697.09" y="221.8" width="31.69" height="31.69" fill="#3ebe3c"/><circle cx="712.9350000000001" cy="237.645" r="15.845" fill="#1c1c1c"/><rect x="728.77" y="221.8" width="31.69" height="31.69" fill="#9933ff"/><rect x="728.77" y="221.8" width="31.69" height="31.69" fill="#9933ff"/><rect x="0" y="253.49" width="63.37" height="63.37" fill="#9933ff"/><path d="M 0 253.49 A 63.37 63.37 0 0 1 63.37 316.86 L 0 316.86" fill="#3ebe3c"/><rect x="63.37" y="253.49" width="63.37" height="63.37" fill="#1c1c1c"/><path d="M 63.37 316.86 A 63.37 63.37 0 0 0 126.74 253.49 L 63.37 253.49" fill="#1c1c1c"/><rect x="126.74285714285715" y="253.4857142857143" width="63.371428571428574" height="63.371428571428574" fill="#ffffff"/><rect x="126.74" y="253.49" width="31.69" height="31.69" fill="#3ebe3c"/><circle cx="142.585" cy="269.33500000000004" r="15.845" fill="#3ebe3c"/><rect x="158.43" y="253.49" width="31.69" height="31.69" fill="#1c1c1c"/><rect x="158.43" y="253.49" width="31.69" height="31.69" fill="#9933ff"/><rect x="126.74" y="285.17" width="31.69" height="31.69" fill="#3ebe3c"/><circle cx="142.585" cy="301.01500000000004" r="15.845" fill="#3ebe3c"/><rect x="158.43" y="285.17" width="31.69" height="31.69" fill="#3ebe3c"/><rect x="158.43" y="285.17" width="31.69" height="31.69" fill="#9933ff"/><rect x="190.11428571428573" y="253.4857142857143" width="63.371428571428574" height="63.371428571428574" fill="#ffffff"/><rect x="190.11" y="253.49" width="31.69" height="31.69" fill="#9933ff"/><polygon points="221.8,253.49 221.8,285.18 190.11,285.18" fill="#9933ff"/><rect x="221.8" y="253.49" width="31.69" height="31.69" fill="#3ebe3c"/><polygon points="221.8,253.49 253.49,285.18 221.8,285.18" fill="#3ebe3c"/><rect x="190.11" y="285.17" width="31.69" height="31.69" fill="#1c1c1c"/><polygon points="190.11,285.17 221.8,285.17 190.11,316.86" fill="#9933ff"/><rect x="221.8" y="285.17" width="31.69" height="31.69" fill="#9933ff"/><polygon points="221.8,285.17 253.49,285.17 253.49,316.86" fill="#1c1c1c"/><rect x="253.49" y="253.49" width="63.37" height="63.37" fill="#9933ff"/><polygon points="253.49,253.49 316.86,253.49 253.49,316.86" fill="#1c1c1c"/><rect x="316.86" y="253.49" width="63.37" height="63.37" fill="#1c1c1c"/><path d="M 316.86 316.86 A 63.37 63.37 0 0 0 380.23 253.49 L 316.86 253.49" fill="#9933ff"/><rect x="380.23" y="253.49" width="63.37" height="63.37" fill="#1c1c1c"/><polygon points="380.23,253.49 443.6,253.49 380.23,316.86" fill="#3ebe3c"/><rect x="443.6" y="253.4857142857143" width="63.371428571428574" height="63.371428571428574" fill="#ffffff"/><rect x="443.6" y="253.49" width="31.69" height="31.69" fill="#9933ff"/><path d="M 443.6 285.18 A 31.69 31.69 0 0 0 475.29 253.49 L 443.6 253.49" fill="#1c1c1c"/><rect x="475.29" y="253.49" width="31.69" height="31.69" fill="#9933ff"/><path d="M 475.29 253.49 A 31.69 31.69 0 0 0 506.98 285.18 L 506.98 253.49" fill="#1c1c1c"/><rect x="443.6" y="285.17" width="31.69" height="31.69" fill="#3ebe3c"/><path d="M 443.6 285.17 A 31.69 31.69 0 0 1 475.29 316.86 L 443.6 316.86" fill="#3ebe3c"/><rect x="475.29" y="285.17" width="31.69" height="31.69" fill="#9933ff"/><path d="M 475.29 316.86 A 31.69 31.69 0 0 1  506.98 285.17 L 506.98 316.86" fill="#3ebe3c"/><rect x="506.97" y="253.49" width="63.37" height="63.37" fill="#9933ff"/><polygon points="570.34,253.49 570.34,316.86 506.97,316.86" fill="#9933ff"/><rect x="570.3428571428572" y="253.4857142857143" width="63.371428571428574" height="63.371428571428574" fill="#ffffff"/><rect x="570.34" y="253.49" width="31.69" height="31.69" fill="#1c1c1c"/><path d="M 570.34 253.49 A 31.69 31.69 0 0 0 602.0300000000001 285.18 L 602.0300000000001 253.49" fill="#9933ff"/><rect x="602.03" y="253.49" width="31.69" height="31.69" fill="#1c1c1c"/><path d="M 602.03 285.18 A 31.69 31.69 0 0 0 633.72 253.49 L 602.03 253.49" fill="#3ebe3c"/><rect x="570.34" y="285.17" width="31.69" height="31.69" fill="#9933ff"/><path d="M 570.34 316.86 A 31.69 31.69 0 0 1  602.0300000000001 285.17 L 602.0300000000001 316.86" fill="#3ebe3c"/><rect x="602.03" y="285.17" width="31.69" height="31.69" fill="#3ebe3c"/><path d="M 602.03 285.17 A 31.69 31.69 0 0 1 633.72 316.86 L 602.03 316.86" fill="#3ebe3c"/><rect x="633.7142857142858" y="253.4857142857143" width="63.371428571428574" height="63.371428571428574" fill="#ffffff"/><rect x="633.71" y="253.49" width="31.69" height="31.69" fill="#1c1c1c"/><polygon points="665.4000000000001,253.49 665.4000000000001,285.18 633.71,285.18" fill="#1c1c1c"/><rect x="665.4" y="253.49" width="31.69" height="31.69" fill="#9933ff"/><polygon points="665.4,253.49 697.09,253.49 665.4,285.18" fill="#1c1c1c"/><rect x="633.71" y="285.17" width="31.69" height="31.69" fill="#9933ff"/><polygon points="633.71,285.17 665.4000000000001,285.17 665.4000000000001,316.86" fill="#9933ff"/><rect x="665.4" y="285.17" width="31.69" height="31.69" fill="#3ebe3c"/><polygon points="665.4,285.17 697.09,316.86 665.4,316.86" fill="#1c1c1c"/><rect x="697.09" y="253.49" width="63.37" height="63.37" fill="#9933ff"/><rect x="697.09" y="253.49" width="63.37" height="63.37" fill="#1c1c1c"/><rect x="0" y="316.8571428571429" width="63.371428571428574" height="63.371428571428574" fill="#ffffff"/><rect x="0" y="316.86" width="31.69" height="31.69" fill="#9933ff"/><path d="M 0 348.55 A 31.69 31.69 0 0 0 31.69 316.86 L 0 316.86" fill="#1c1c1c"/><rect x="31.69" y="316.86" width="31.69" height="31.69" fill="#3ebe3c"/><path d="M 31.69 316.86 A 31.69 31.69 0 0 0 63.38 348.55 L 63.38 316.86" fill="#3ebe3c"/><rect x="0" y="348.54" width="31.69" height="31.69" fill="#1c1c1c"/><path d="M 0 348.54 A 31.69 31.69 0 0 1 31.69 380.23 L 0 380.23" fill="#1c1c1c"/><rect x="31.69" y="348.54" width="31.69" height="31.69" fill="#9933ff"/><path d="M 31.69 380.23 A 31.69 31.69 0 0 1  63.38 348.54 L 63.38 380.23" fill="#9933ff"/><rect x="63.37" y="316.86" width="63.37" height="63.37" fill="#9933ff"/><path d="M 63.37 380.23 A 63.37 63.37 0 0 0 126.74 316.86 L 63.37 316.86" fill="#9933ff"/><rect x="126.74285714285715" y="316.8571428571429" width="63.371428571428574" height="63.371428571428574" fill="#ffffff"/><rect x="126.74" y="316.86" width="31.69" height="31.69" fill="#3ebe3c"/><polygon points="158.43,316.86 158.43,348.55 126.74,348.55" fill="#1c1c1c"/><rect x="158.43" y="316.86" width="31.69" height="31.69" fill="#1c1c1c"/><polygon points="158.43,316.86 190.12,316.86 158.43,348.55" fill="#9933ff"/><rect x="126.74" y="348.54" width="31.69" height="31.69" fill="#9933ff"/><polygon points="126.74,348.54 158.43,348.54 158.43,380.23" fill="#3ebe3c"/><rect x="158.43" y="348.54" width="31.69" height="31.69" fill="#3ebe3c"/><polygon points="158.43,348.54 190.12,380.23 158.43,380.23" fill="#9933ff"/><rect x="190.11428571428573" y="316.8571428571429" width="63.371428571428574" height="63.371428571428574" fill="#ffffff"/><rect x="190.11" y="316.86" width="31.69" height="31.69" fill="#9933ff"/><polygon points="221.8,316.86 221.8,348.55 190.11,348.55" fill="#3ebe3c"/><rect x="221.8" y="316.86" width="31.69" height="31.69" fill="#1c1c1c"/><polygon points="221.8,316.86 253.49,348.55 221.8,348.55" fill="#1c1c1c"/><rect x="190.11" y="348.54" width="31.69" height="31.69" fill="#9933ff"/><polygon points="190.11,348.54 221.8,348.54 221.8,380.23" fill="#9933ff"/><rect x="221.8" y="348.54" width="31.69" height="31.69" fill="#1c1c1c"/><polygon points="221.8,348.54 253.49,348.54 221.8,380.23" fill="#9933ff"/><rect x="253.4857142857143" y="316.8571428571429" width="63.371428571428574" height="63.371428571428574" fill="#ffffff"/><rect x="253.49" y="316.86" width="31.69" height="31.69" fill="#1c1c1c"/><polygon points="285.18,316.86 285.18,348.55 253.49,348.55" fill="#9933ff"/><rect x="285.17" y="316.86" width="31.69" height="31.69" fill="#9933ff"/><polygon points="285.17,316.86 316.86,348.55 285.17,348.55" fill="#3ebe3c"/><rect x="253.49" y="348.54" width="31.69" height="31.69" fill="#1c1c1c"/><polygon points="253.49,348.54 285.18,348.54 285.18,380.23" fill="#9933ff"/><rect x="285.17" y="348.54" width="31.69" height="31.69" fill="#1c1c1c"/><polygon points="285.17,348.54 316.86,348.54 285.17,380.23" fill="#9933ff"/><rect x="316.86" y="316.86" width="63.37" height="63.37" fill="#1c1c1c"/><rect x="316.86" y="316.86" width="63.37" height="63.37" fill="#1c1c1c"/><rect x="380.22857142857146" y="316.8571428571429" width="63.371428571428574" height="63.371428571428574" fill="#ffffff"/><rect x="380.23" y="316.86" width="31.69" height="31.69" fill="#9933ff"/><path d="M 380.23 348.55 A 31.69 31.69 0 0 0 411.92 316.86 L 380.23 316.86" fill="#1c1c1c"/><rect x="411.91" y="316.86" width="31.69" height="31.69" fill="#9933ff"/><path d="M 411.91 316.86 A 31.69 31.69 0 0 0 443.6 348.55 L 443.6 316.86" fill="#9933ff"/><rect x="380.23" y="348.54" width="31.69" height="31.69" fill="#3ebe3c"/><path d="M 380.23 348.54 A 31.69 31.69 0 0 1 411.92 380.23 L 380.23 380.23" fill="#3ebe3c"/><rect x="411.91" y="348.54" width="31.69" height="31.69" fill="#1c1c1c"/><path d="M 411.91 380.23 A 31.69 31.69 0 0 1  443.6 348.54 L 443.6 380.23" fill="#1c1c1c"/><rect x="443.6" y="316.8571428571429" width="63.371428571428574" height="63.371428571428574" fill="#ffffff"/><rect x="443.6" y="316.86" width="31.69" height="31.69" fill="#9933ff"/><path d="M 443.6 316.86 A 31.69 31.69 0 0 1 475.29 348.55 L 443.6 348.55" fill="#3ebe3c"/><rect x="475.29" y="316.86" width="31.69" height="31.69" fill="#3ebe3c"/><path d="M 475.29 348.55 A 31.69 31.69 0 0 1  506.98 316.86 L 506.98 348.55" fill="#1c1c1c"/><rect x="443.6" y="348.54" width="31.69" height="31.69" fill="#1c1c1c"/><path d="M 443.6 380.23 A 31.69 31.69 0 0 0 475.29 348.54 L 443.6 348.54" fill="#3ebe3c"/><rect x="475.29" y="348.54" width="31.69" height="31.69" fill="#1c1c1c"/><path d="M 475.29 348.54 A 31.69 31.69 0 0 0 506.98 380.23 L 506.98 348.54" fill="#3ebe3c"/><rect x="506.97" y="316.86" width="63.37" height="63.37" fill="#1c1c1c"/><rect x="506.97" y="316.86" width="63.37" height="63.37" fill="#1c1c1c"/><rect x="570.34" y="316.86" width="63.37" height="63.37" fill="#3ebe3c"/><path d="M 570.34 380.23 A 63.37 63.37 0 0 0 633.71 316.86 L 570.34 316.86" fill="#9933ff"/><rect x="633.71" y="316.86" width="63.37" height="63.37" fill="#1c1c1c"/><polygon points="697.08,316.86 697.08,380.23 633.71,380.23" fill="#3ebe3c"/><rect x="697.0857142857143" y="316.8571428571429" width="63.371428571428574" height="63.371428571428574" fill="#ffffff"/><rect x="697.09" y="316.86" width="31.69" height="31.69" fill="#3ebe3c"/><path d="M 697.09 348.55 A 31.69 31.69 0 0 1  728.7800000000001 316.86 L 728.7800000000001 348.55" fill="#3ebe3c"/><rect x="728.77" y="316.86" width="31.69" height="31.69" fill="#9933ff"/><path d="M 728.77 316.86 A 31.69 31.69 0 0 1 760.46 348.55 L 728.77 348.55" fill="#9933ff"/><rect x="697.09" y="348.54" width="31.69" height="31.69" fill="#3ebe3c"/><path d="M 697.09 348.54 A 31.69 31.69 0 0 0 728.7800000000001 380.23 L 728.7800000000001 348.54" fill="#3ebe3c"/><rect x="728.77" y="348.54" width="31.69" height="31.69" fill="#3ebe3c"/><path d="M 728.77 380.23 A 31.69 31.69 0 0 0 760.46 348.54 L 728.77 348.54" fill="#3ebe3c"/><rect x="0" y="380.23" width="63.37" height="63.37" fill="#3ebe3c"/><path d="M 0 443.6 A 63.37 63.37 0 0 1  63.37 380.23 L 0 443.6 A 63.37 63.37 0 0 0 63.37 380.23" fill="#3ebe3c"/><rect x="63.37" y="380.23" width="63.37" height="63.37" fill="#3ebe3c"/><rect x="63.37" y="380.23" width="63.37" height="63.37" fill="#1c1c1c"/><rect x="126.74" y="380.23" width="63.37" height="63.37" fill="#3ebe3c"/><rect x="126.74" y="380.23" width="63.37" height="63.37" fill="#1c1c1c"/><rect x="190.11428571428573" y="380.22857142857146" width="63.371428571428574" height="63.371428571428574" fill="#ffffff"/><rect x="190.11" y="380.23" width="31.69" height="31.69" fill="#1c1c1c"/><path d="M 190.11 411.92 A 31.69 31.69 0 0 0 221.8 380.23 L 190.11 380.23" fill="#9933ff"/><rect x="221.8" y="380.23" width="31.69" height="31.69" fill="#9933ff"/><path d="M 221.8 380.23 A 31.69 31.69 0 0 0 253.49 411.92 L 253.49 380.23" fill="#1c1c1c"/><rect x="190.11" y="411.91" width="31.69" height="31.69" fill="#9933ff"/><path d="M 190.11 411.91 A 31.69 31.69 0 0 1 221.8 443.6 L 190.11 443.6" fill="#9933ff"/><rect x="221.8" y="411.91" width="31.69" height="31.69" fill="#1c1c1c"/><path d="M 221.8 443.6 A 31.69 31.69 0 0 1  253.49 411.91 L 253.49 443.6" fill="#3ebe3c"/><rect x="253.4857142857143" y="380.22857142857146" width="63.371428571428574" height="63.371428571428574" fill="#ffffff"/><rect x="253.49" y="380.23" width="31.69" height="31.69" fill="#9933ff"/><path d="M 253.49 411.92 A 31.69 31.69 0 0 1 285.18 380.23 L 285.18 388.15250000000003 A 23.767500000000002 23.767500000000002 0 0 0 261.4125 411.92" fill="#1c1c1c"/><rect x="285.17" y="380.23" width="31.69" height="31.69" fill="#1c1c1c"/><path d="M 285.17 380.23 A 31.69 31.69 0 0 1 316.86 411.92 L 308.9375 411.92 A 23.767500000000002 23.767500000000002 0 0 0 285.17 388.15250000000003" fill="#1c1c1c"/><rect x="253.49" y="411.91" width="31.69" height="31.69" fill="#1c1c1c"/><path d="M 253.49 411.91 A 31.69 31.69 0 0 0 285.18 443.6 L 285.18 435.6775 A 23.767500000000002 23.767500000000002 0 0 1 261.4125 411.91" fill="#3ebe3c"/><rect x="285.17" y="411.91" width="31.69" height="31.69" fill="#3ebe3c"/><path d="M 285.17 443.6 A 31.69 31.69 0 0 0 316.86 411.91 L 308.9375 411.91 A 23.767500000000002 23.767500000000002 0 0 1 285.17 435.6775" fill="#9933ff"/><rect x="316.8571428571429" y="380.22857142857146" width="63.371428571428574" height="63.371428571428574" fill="#ffffff"/><rect x="316.86" y="380.23" width="31.69" height="31.69" fill="#1c1c1c"/><path d="M 316.86 411.92 A 31.69 31.69 0 0 1 348.55 380.23 L 348.55 388.15250000000003 A 23.767500000000002 23.767500000000002 0 0 0 324.7825 411.92" fill="#9933ff"/><rect x="348.54" y="380.23" width="31.69" height="31.69" fill="#1c1c1c"/><path d="M 348.54 380.23 A 31.69 31.69 0 0 1 380.23 411.92 L 372.3075 411.92 A 23.767500000000002 23.767500000000002 0 0 0 348.54 388.15250000000003" fill="#1c1c1c"/><rect x="316.86" y="411.91" width="31.69" height="31.69" fill="#9933ff"/><path d="M 316.86 411.91 A 31.69 31.69 0 0 0 348.55 443.6 L 348.55 435.6775 A 23.767500000000002 23.767500000000002 0 0 1 324.7825 411.91" fill="#9933ff"/><rect x="348.54" y="411.91" width="31.69" height="31.69" fill="#9933ff"/><path d="M 348.54 443.6 A 31.69 31.69 0 0 0 380.23 411.91 L 372.3075 411.91 A 23.767500000000002 23.767500000000002 0 0 1 348.54 435.6775" fill="#1c1c1c"/><rect x="380.22857142857146" y="380.22857142857146" width="63.371428571428574" height="63.371428571428574" fill="#ffffff"/><rect x="380.23" y="380.23" width="31.69" height="31.69" fill="#9933ff"/><path d="M 380.23 411.92 A 31.69 31.69 0 0 1 411.92 380.23 L 411.92 388.15250000000003 A 23.767500000000002 23.767500000000002 0 0 0 388.15250000000003 411.92" fill="#3ebe3c"/><rect x="411.91" y="380.23" width="31.69" height="31.69" fill="#9933ff"/><path d="M 411.91 380.23 A 31.69 31.69 0 0 1 443.6 411.92 L 435.6775 411.92 A 23.767500000000002 23.767500000000002 0 0 0 411.91 388.15250000000003" fill="#1c1c1c"/><rect x="380.23" y="411.91" width="31.69" height="31.69" fill="#3ebe3c"/><path d="M 380.23 411.91 A 31.69 31.69 0 0 0 411.92 443.6 L 411.92 435.6775 A 23.767500000000002 23.767500000000002 0 0 1 388.15250000000003 411.91" fill="#9933ff"/><rect x="411.91" y="411.91" width="31.69" height="31.69" fill="#9933ff"/><path d="M 411.91 443.6 A 31.69 31.69 0 0 0 443.6 411.91 L 435.6775 411.91 A 23.767500000000002 23.767500000000002 0 0 1 411.91 435.6775" fill="#9933ff"/><rect x="443.6" y="380.23" width="63.37" height="63.37" fill="#3ebe3c"/><path d="M 443.6 443.6 A 63.37 63.37 0 0 1  506.97 380.23 L 506.97 443.6" fill="#9933ff"/><rect x="506.9714285714286" y="380.22857142857146" width="63.371428571428574" height="63.371428571428574" fill="#ffffff"/><rect x="506.97" y="380.23" width="31.69" height="31.69" fill="#3ebe3c"/><polygon points="538.6600000000001,380.23 538.6600000000001,411.92 506.97,411.92" fill="#9933ff"/><rect x="538.66" y="380.23" width="31.69" height="31.69" fill="#3ebe3c"/><polygon points="538.66,380.23 570.35,411.92 538.66,411.92" fill="#3ebe3c"/><rect x="506.97" y="411.91" width="31.69" height="31.69" fill="#9933ff"/><polygon points="506.97,411.91 538.6600000000001,411.91 506.97,443.6" fill="#3ebe3c"/><rect x="538.66" y="411.91" width="31.69" height="31.69" fill="#1c1c1c"/><polygon points="538.66,411.91 570.35,411.91 570.35,443.6" fill="#3ebe3c"/><rect x="570.34" y="380.23" width="63.37" height="63.37" fill="#1c1c1c"/><path d="M 570.34 380.23 A 63.37 63.37 0 0 0 633.71 443.6 L 633.71 380.23" fill="#3ebe3c"/><rect x="633.7142857142858" y="380.22857142857146" width="63.371428571428574" height="63.371428571428574" fill="#ffffff"/><rect x="633.71" y="380.23" width="31.69" height="31.69" fill="#9933ff"/><path d="M 633.71 411.92 A 31.69 31.69 0 0 1 665.4000000000001 380.23 L 665.4000000000001 388.15250000000003 A 23.767500000000002 23.767500000000002 0 0 0 641.6325 411.92" fill="#1c1c1c"/><rect x="665.4" y="380.23" width="31.69" height="31.69" fill="#1c1c1c"/><path d="M 665.4 380.23 A 31.69 31.69 0 0 1 697.09 411.92 L 689.1675 411.92 A 23.767500000000002 23.767500000000002 0 0 0 665.4 388.15250000000003" fill="#3ebe3c"/><rect x="633.71" y="411.91" width="31.69" height="31.69" fill="#9933ff"/><path d="M 633.71 411.91 A 31.69 31.69 0 0 0 665.4000000000001 443.6 L 665.4000000000001 435.6775 A 23.767500000000002 23.767500000000002 0 0 1 641.6325 411.91" fill="#1c1c1c"/><rect x="665.4" y="411.91" width="31.69" height="31.69" fill="#9933ff"/><path d="M 665.4 443.6 A 31.69 31.69 0 0 0 697.09 411.91 L 689.1675 411.91 A 23.767500000000002 23.767500000000002 0 0 1 665.4 435.6775" fill="#9933ff"/><rect x="697.09" y="380.23" width="63.37" height="63.37" fill="#9933ff"/><rect x="697.09" y="380.23" width="63.37" height="63.37" fill="#3ebe3c"/></g></svg>