<?xml version="1.0" standalone="no"?><svg xmlns:xlink="http://www.w3.org/1999/xlink" xmlns="http://www.w3.org/2000/svg" viewBox="0 0 1100 641.6726937997238" preserveAspectRatio="xMaxYMax slice"><g transform="scale(1.446511933723453)"><rect x="0" y="0" width="760.4571428571429" height="443.6" fill="#ffffff"/><rect x="0" y="0" width="63.37" height="63.37" fill="#20dfdf"/><path d="M 0 0 A 63.37 63.37 0 0 0 63.37 63.37 L 63.37 0" fill="#b618e2"/><rect x="63.371428571428574" y="0" width="63.371428571428574" height="63.371428571428574" fill="#ffffff"/><rect x="63.37" y="0" width="31.69" height="31.69" fill="#fff533"/><path d="M 63.37 0 A 31.69 31.69 0 0 0 95.06 31.69 L 95.06 0" fill="#20dfdf"/><rect x="95.06" y="0" width="31.69" height="31.69" fill="#20dfdf"/><path d="M 95.06 31.69 A 31.69 31.69 0 0 1  126.75 0 L 95.06 31.69 A 31.69 31.69 0 0 0 126.75 0" fill="#20dfdf"/><rect x="63.37" y="31.69" width="31.69" height="31.69" fill="#b618e2"/><path d="M 63.37 63.38 A 31.69 31.69 0 0 1  95.06 31.69 L 95.06 63.38" fill="#fff533"/><rect x="95.06" y="31.69" width="31.69" height="31.69" fill="#fff533"/><path d="M 95.06 31.69 A 31.69 31.69 0 0 0 126.75 63.38 L 126.75 31.69" fill="#fff533"/><rect x="126.74" y="0" width="63.37" height="63.37" fill="#b618e2"/><path d="M 126.74 63.37 A 63.37 63.37 0 0 1  190.10999999999999 0 L 190.10999999999999 63.37" fill="#b618e2"/><rect x="190.11428571428573" y="0" width="63.371428571428574" height="63.371428571428574" fill="#ffffff"/><rect x="190.11" y="0" width="31.69" height="31.69" fill="#fff533"/><path d="M 190.11 31.69 A 31.69 31.69 0 0 0 221.8 0 L 190.11 0" fill="#fff533"/><rect x="221.8" y="0" width="31.69" height="31.69" fill="#fff533"/><path d="M 221.8 0 A 31.69 31.69 0 0 1 253.49 31.69 L 221.8 31.69" fill="#20dfdf"/><rect x="190.11" y="31.69" width="31.69" height="31.69" fill="#fff533"/><path d="M 190.11 31.69 A 31.69 31.69 0 0 0 221.8 63.38 L 221.8 31.69" fill="#20dfdf"/><rect x="221.8" y="31.69" width="31.69" height="31.69" fill="#fff533"/><path d="M 221.8 63.38 A 31.69 31.69 0 0 0 253.49 31.69 L 221.8 31.69" fill="#fff533"/><rect x="253.4857142857143" y="0" width="63.371428571428574" height="63.371428571428574" fill="#ffffff"/><rect x="253.49" y="0" width="31.69" height="31.69" fill="#fff533"/><path d="M 253.49 0 A 31.69 31.69 0 0 1  285.18 31.69 L 253.49 0 A 31.69 31.69 0 0 0 285.18 31.69" fill="#20dfdf"/><rect x="285.17" y="0" width="31.69" height="31.69" fill="#20dfdf"/><path d="M 285.17 31.69 A 31.69 31.69 0 0 1  316.86 0 L 316.86 31.69" fill="#b618e2"/><rect x="253.49" y="31.69" width="31.69" height="31.69" fill="#fff533"/><path d="M 253.49 31.69 A 31.69 31.69 0 0 1  285.18 63.38 L 253.49 31.69 A 31.69 31.69 0 0 0 285.18 63.38" fill="#b618e2"/><rect x="285.17" y="31.69" width="31.69" height="31.69" fill="#fff533"/><path d="M 285.17 63.38 A 31.69 31.69 0 0 0 316.86 31.69 L 285.17 31.69" fill="#20dfdf"/><rect x="316.8571428571429" y="0" width="63.371428571428574" height="63.371428571428574" fill="#ffffff"/><rect x="316.86" y="0" width="31.69" height="31.69" fill="#20dfdf"/><path d="M 316.86 0 A 31.69 31.69 0 0 1 348.55 31.69 L 316.86 31.69" fill="#fff533"/><rect x="348.54" y="0" width="31.69" height="31.69" fill="#b618e2"/><path d="M 348.54 0 A 31.69 31.69 0 0 1  380.23 31.69 L 348.54 0 A 31.69 31.69 0 0 0 380.23 31.69" fill="#b618e2"/><rect x="316.86" y="31.69" width="31.69" height="31.69" fill="#20dfdf"/><path d="M 316.86 63.38 A 31.69 31.69 0 0 0 348.55 31.69 L 316.86 31.69" fill="#20dfdf"/><rect x="348.54" y="31.69" width="31.69" height="31.69" fill="#fff533"/><path d="M 348.54 31.69 A 31.69 31.69 0 0 1  380.23 63.38 L 348.54 31.69 A 31.69 31.69 0 0 0 380.23 63.38" fill="#fff533"/><rect x="380.23" y="0" width="63.37" height="63.37" fill="#b618e2"/><path d="M 380.23 63.37 A 63.37 63.37 0 0 1  443.6 0 L 443.6 63.37" fill="#fff533"/><rect x="443.6" y="0" width="63.37" height="63.37" fill="#fff533"/><path d="M 443.6 0 A 63.37 63.37 0 0 0 506.97 63.37 L 506.97 0" fill="#b618e2"/><rect x="506.9714285714286" y="0" width="63.371428571428574" height="63.371428571428574" fill="#ffffff"/><rect x="506.97" y="0" width="31.69" height="31.69" fill="#20dfdf"/><path d="M 506.97 0 A 31.69 31.69 0 0 1  538.6600000000001 31.69 L 506.97 0 A 31.69 31.69 0 0 0 538.6600000000001 31.69" fill="#20dfdf"/><rect x="538.66" y="0" width="31.69" height="31.69" fill="#b618e2"/><path d="M 538.66 0 A 31.69 31.69 0 0 1  570.35 31.69 L 538.66 0 A 31.69 31.69 0 0 0 570.35 31.69" fill="#b618e2"/><rect x="506.97" y="31.69" width="31.69" height="31.69" fill="#b618e2"/><path d="M 506.97 63.38 A 31.69 31.69 0 0 0 538.6600000000001 31.69 L 506.97 31.69" fill="#20dfdf"/><rect x="538.66" y="31.69" width="31.69" height="31.69" fill="#b618e2"/><path d="M 538.66 63.38 A 31.69 31.69 0 0 0 570.35 31.69 L 538.66 31.69" fill="#fff533"/><rect x="570.3428571428572" y="0" width="63.371428571428574" height="63.371428571428574" fill="#ffffff"/><rect x="570.34" y="0" width="31.69" height="31.69" fill="#b618e2"/><path d="M 570.34 0 A 31.69 31.69 0 0 1 602.0300000000001 31.69 L 570.34 31.69" fill="#fff533"/><rect x="602.03" y="0" width="31.69" height="31.69" fill="#b618e2"/><path d="M 602.03 0 A 31.69 31.69 0 0 1  633.72 31.69 L 602.03 0 A 31.69 31.69 0 0 0 633.72 31.69" fill="#20dfdf"/><rect x="570.34" y="31.69" width="31.69" height="31.69" fill="#fff533"/><path d="M 570.34 63.38 A 31.69 31.69 0 0 1  602.0300000000001 31.69 L 602.0300000000001 63.38" fill="#b618e2"/><rect x="602.03" y="31.69" width="31.69" height="31.69" fill="#fff533"/><path d="M 602.03 31.69 A 31.69 31.69 0 0 0 633.72 63.38 L 633.72 31.69" fill="#b618e2"/><rect x="633.7142857142858" y="0" width="63.371428571428574" height="63.371428571428574" fill="#ffffff"/><rect x="633.71" y="0" width="31.69" height="31.69" fill="#b618e2"/><path d="M 633.71 0 A 31.69 31.69 0 0 0 665.4000000000001 31.69 L 665.4000000000001 0" fill="#fff533"/><rect x="665.4" y="0" width="31.69" height="31.69" fill="#20dfdf"/><path d="M 665.4 0 A 31.69 31.69 0 0 0 697.09 31.69 L 697.09 0" fill="#fff533"/><rect x="633.71" y="31.69" width="31.69" height="31.69" fill="#b618e2"/><path d="M 633.71 31.69 A 31.69 31.69 0 0 1  665.4000000000001 63.38 L 633.71 31.69 A 31.69 31.69 0 0 0 665.4000000000001 63.38" fill="#b618e2"/><rect x="665.4" y="31.69" width="31.69" height="31.69" fill="#fff533"/><path d="M 665.4 31.69 A 31.69 31.69 0 0 0 697.09 63.38 L 697.09 31.69" fill="#fff533"/><rect x="697.09" y="0" width="63.37" height="63.37" fill="#b618e2"/><path d="M 697.09 0 A 63.37 63.37 0 0 1 760.46 63.37 L 697.09 63.37" fill="#fff533"/><rect x="0" y="63.37" width="63.37" height="63.37" fill="#20dfdf"/><path d="M 0 126.74 A 63.37 63.37 0 0 1  63.37 63.37 L 63.37 126.74" fill="#fff533"/><rect x="63.371428571428574" y="63.371428571428574" width="63.371428571428574" height="63.371428571428574" fill="#ffffff"/><rect x="63.37" y="63.37" width="31.69" height="31.69" fill="#fff533"/><path d="M 63.37 63.37 A 31.69 31.69 0 0 1 95.06 95.06 L 63.37 95.06" fill="#fff533"/><rect x="95.06" y="63.37" width="31.69" height="31.69" fill="#20dfdf"/><path d="M 95.06 95.06 A 31.69 31.69 0 0 1  126.75 63.37 L 126.75 95.06" fill="#b618e2"/><rect x="63.37" y="95.06" width="31.69" height="31.69" fill="#fff533"/><path d="M 63.37 126.75 A 31.69 31.69 0 0 1  95.06 95.06 L 63.37 126.75 A 31.69 31.69 0 0 0 95.06 95.06" fill="#b618e2"/><rect x="95.06" y="95.06" width="31.69" height="31.69" fill="#b618e2"/><path d="M 95.06 126.75 A 31.69 31.69 0 0 1  126.75 95.06 L 95.06 126.75 A 31.69 31.69 0 0 0 126.75 95.06" fill="#b618e2"/><rect x="126.74285714285715" y="63.371428571428574" width="63.371428571428574" height="63.371428571428574" fill="#ffffff"/><rect x="126.74" y="63.37" width="31.69" height="31.69" fill="#b618e2"/><path d="M 126.74 95.06 A 31.69 31.69 0 0 1  158.43 63.37 L 126.74 95.06 A 31.69 31.69 0 0 0 158.43 63.37" fill="#fff533"/><rect x="158.43" y="63.37" width="31.69" height="31.69" fill="#b618e2"/><path d="M 158.43 63.37 A 31.69 31.69 0 0 1  190.12 95.06 L 158.43 63.37 A 31.69 31.69 0 0 0 190.12 95.06" fill="#20dfdf"/><rect x="126.74" y="95.06" width="31.69" height="31.69" fill="#fff533"/><path d="M 126.74 126.75 A 31.69 31.69 0 0 1  158.43 95.06 L 126.74 126.75 A 31.69 31.69 0 0 0 158.43 95.06" fill="#fff533"/><rect x="158.43" y="95.06" width="31.69" height="31.69" fill="#20dfdf"/><path d="M 158.43 95.06 A 31.69 31.69 0 0 1  190.12 126.75 L 158.43 95.06 A 31.69 31.69 0 0 0 190.12 126.75" fill="#fff533"/><rect x="190.11428571428573" y="63.371428571428574" width="63.371428571428574" height="63.371428571428574" fill="#ffffff"/><rect x="190.11" y="63.37" width="31.69" height="31.69" fill="#20dfdf"/><path d="M 190.11 63.37 A 31.69 31.69 0 0 0 221.8 95.06 L 221.8 63.37" fill="#20dfdf"/><rect x="221.8" y="63.37" width="31.69" height="31.69" fill="#fff533"/><path d="M 221.8 95.06 A 31.69 31.69 0 0 0 253.49 63.37 L 221.8 63.37" fill="#20dfdf"/><rect x="190.11" y="95.06" width="31.69" height="31.69" fill="#fff533"/><path d="M 190.11 126.75 A 31.69 31.69 0 0 0 221.8 95.06 L 190.11 95.06" fill="#fff533"/><rect x="221.8" y="95.06" width="31.69" height="31.69" fill="#fff533"/><path d="M 221.8 126.75 A 31.69 31.69 0 0 1  253.49 95.06 L 221.8 126.75 A 31.69 31.69 0 0 0 253.49 95.06" fill="#fff533"/><rect x="253.49" y="63.37" width="63.37" height="63.37" fill="#fff533"/><path d="M 253.49 126.74 A 63.37 63.37 0 0 1  316.86 63.37 L 253.49 126.74 A 63.37 63.37 0 0 0 316.86 63.37" fill="#fff533"/><rect x="316.8571428571429" y="63.371428571428574" width="63.371428571428574" height="63.371428571428574" fill="#ffffff"/><rect x="316.86" y="63.37" width="31.69" height="31.69" fill="#20dfdf"/><path d="M 316.86 63.37 A 31.69 31.69 0 0 1  348.55 95.06 L 316.86 63.37 A 31.69 31.69 0 0 0 348.55 95.06" fill="#fff533"/><rect x="348.54" y="63.37" width="31.69" height="31.69" fill="#fff533"/><path d="M 348.54 95.06 A 31.69 31.69 0 0 0 380.23 63.37 L 348.54 63.37" fill="#b618e2"/><rect x="316.86" y="95.06" width="31.69" height="31.69" fill="#fff533"/><path d="M 316.86 126.75 A 31.69 31.69 0 0 1  348.55 95.06 L 316.86 126.75 A 31.69 31.69 0 0 0 348.55 95.06" fill="#fff533"/><rect x="348.54" y="95.06" width="31.69" height="31.69" fill="#b618e2"/><path d="M 348.54 126.75 A 31.69 31.69 0 0 1  380.23 95.06 L 348.54 126.75 A 31.69 31.69 0 0 0 380.23 95.06" fill="#b618e2"/><rect x="380.23" y="63.37" width="63.37" height="63.37" fill="#b618e2"/><path d="M 380.23 63.37 A 63.37 63.37 0 0 0 443.6 126.74 L 443.6 63.37" fill="#b618e2"/><rect x="443.6" y="63.37" width="63.37" height="63.37" fill="#b618e2"/><path d="M 443.6 126.74 A 63.37 63.37 0 0 1  506.97 63.37 L 506.97 126.74" fill="#fff533"/><rect x="506.97" y="63.37" width="63.37" height="63.37" fill="#b618e2"/><path d="M 506.97 63.37 A 63.37 63.37 0 0 1  570.34 126.74 L 506.97 63.37 A 63.37 63.37 0 0 0 570.34 126.74" fill="#20dfdf"/><rect x="570.3428571428572" y="63.371428571428574" width="63.371428571428574" height="63.371428571428574" fill="#ffffff"/><rect x="570.34" y="63.37" width="31.69" height="31.69" fill="#fff533"/><path d="M 570.34 95.06 A 31.69 31.69 0 0 0 602.0300000000001 63.37 L 570.34 63.37" fill="#b618e2"/><rect x="602.03" y="63.37" width="31.69" height="31.69" fill="#b618e2"/><path d="M 602.03 63.37 A 31.69 31.69 0 0 0 633.72 95.06 L 633.72 63.37" fill="#b618e2"/><rect x="570.34" y="95.06" width="31.69" height="31.69" fill="#b618e2"/><path d="M 570.34 95.06 A 31.69 31.69 0 0 1  602.0300000000001 126.75 L 570.34 95.06 A 31.69 31.69 0 0 0 602.0300000000001 126.75" fill="#20dfdf"/><rect x="602.03" y="95.06" width="31.69" height="31.69" fill="#20dfdf"/><path d="M 602.03 95.06 A 31.69 31.69 0 0 1  633.72 126.75 L 602.03 95.06 A 31.69 31.69 0 0 0 633.72 126.75" fill="#fff533"/><rect x="633.71" y="63.37" width="63.37" height="63.37" fill="#fff533"/><path d="M 633.71 63.37 A 63.37 63.37 0 0 1 697.08 126.74 L 633.71 126.74" fill="#fff533"/><rect x="697.09" y="63.37" width="63.37" height="63.37" fill="#fff533"/><path d="M 697.09 126.74 A 63.37 63.37 0 0 1  760.46 63.37 L 760.46 126.74" fill="#b618e2"/><rect x="0" y="126.74" width="63.37" height="63.37" fill="#20dfdf"/><path d="M 0 126.74 A 63.37 63.37 0 0 0 63.37 190.10999999999999 L 63.37 126.74" fill="#b618e2"/><rect x="63.37" y="126.74" width="63.37" height="63.37" fill="#20dfdf"/><path d="M 63.37 190.10999999999999 A 63.37 63.37 0 0 1  126.74 126.74 L 126.74 190.10999999999999" fill="#fff533"/><rect x="126.74" y="126.74" width="63.37" height="63.37" fill="#b618e2"/><path d="M 126.74 126.74 A 63.37 63.37 0 0 0 190.10999999999999 190.10999999999999 L 190.10999999999999 126.74" fill="#20dfdf"/><rect x="190.11" y="126.74" width="63.37" height="63.37" fill="#20dfdf"/><path d="M 190.11 190.10999999999999 A 63.37 63.37 0 0 0 253.48000000000002 126.74 L 190.11 126.74" fill="#20dfdf"/><rect x="253.49" y="126.74" width="63.37" height="63.37" fill="#fff533"/><path d="M 253.49 126.74 A 63.37 63.37 0 0 1  316.86 190.10999999999999 L 253.49 126.74 A 63.37 63.37 0 0 0 316.86 190.10999999999999" fill="#fff533"/><rect x="316.86" y="126.74" width="63.37" height="63.37" fill="#b618e2"/><path d="M 316.86 126.74 A 63.37 63.37 0 0 1  380.23 190.10999999999999 L 316.86 126.74 A 63.37 63.37 0 0 0 380.23 190.10999999999999" fill="#20dfdf"/><rect x="380.22857142857146" y="126.74285714285715" width="63.371428571428574" height="63.371428571428574" fill="#ffffff"/><rect x="380.23" y="126.74" width="31.69" height="31.69" fill="#fff533"/><path d="M 380.23 158.43 A 31.69 31.69 0 0 0 411.92 126.74 L 380.23 126.74" fill="#b618e2"/><rect x="411.91" y="126.74" width="31.69" height="31.69" fill="#fff533"/><path d="M 411.91 126.74 A 31.69 31.69 0 0 0 443.6 158.43 L 443.6 126.74" fill="#b618e2"/><rect x="380.23" y="158.43" width="31.69" height="31.69" fill="#20dfdf"/><path d="M 380.23 190.12 A 31.69 31.69 0 0 1  411.92 158.43 L 380.23 190.12 A 31.69 31.69 0 0 0 411.92 158.43" fill="#b618e2"/><rect x="411.91" y="158.43" width="31.69" height="31.69" fill="#20dfdf"/><path d="M 411.91 158.43 A 31.69 31.69 0 0 1 443.6 190.12 L 411.91 190.12" fill="#fff533"/><rect x="443.6" y="126.74285714285715" width="63.371428571428574" height="63.371428571428574" fill="#ffffff"/><rect x="443.6" y="126.74" width="31.69" height="31.69" fill="#20dfdf"/><path d="M 443.6 126.74 A 31.69 31.69 0 0 1  475.29 158.43 L 443.6 126.74 A 31.69 31.69 0 0 0 475.29 158.43" fill="#fff533"/><rect x="475.29" y="126.74" width="31.69" height="31.69" fill="#fff533"/><path d="M 475.29 158.43 A 31.69 31.69 0 0 1  506.98 126.74 L 475.29 158.43 A 31.69 31.69 0 0 0 506.98 126.74" fill="#b618e2"/><rect x="443.6" y="158.43" width="31.69" height="31.69" fill="#b618e2"/><path d="M 443.6 190.12 A 31.69 31.69 0 0 1  475.29 158.43 L 443.6 190.12 A 31.69 31.69 0 0 0 475.29 158.43" fill="#b618e2"/><rect x="475.29" y="158.43" width="31.69" height="31.69" fill="#20dfdf"/><path d="M 475.29 158.43 A 31.69 31.69 0 0 1 506.98 190.12 L 475.29 190.12" fill="#b618e2"/><rect x="506.97" y="126.74" width="63.37" height="63.37" fill="#b618e2"/><path d="M 506.97 190.10999999999999 A 63.37 63.37 0 0 0 570.34 126.74 L 506.97 126.74" fill="#20dfdf"/><rect x="570.3428571428572" y="126.74285714285715" width="63.371428571428574" height="63.371428571428574" fill="#ffffff"/><rect x="570.34" y="126.74" width="31.69" height="31.69" fill="#fff533"/><path d="M 570.34 158.43 A 31.69 31.69 0 0 0 602.0300000000001 126.74 L 570.34 126.74" fill="#20dfdf"/><rect x="602.03" y="126.74" width="31.69" height="31.69" fill="#fff533"/><path d="M 602.03 126.74 A 31.69 31.69 0 0 1 633.72 158.43 L 602.03 158.43" fill="#fff533"/><rect x="570.34" y="158.43" width="31.69" height="31.69" fill="#fff533"/><path d="M 570.34 158.43 A 31.69 31.69 0 0 1 602.0300000000001 190.12 L 570.34 190.12" fill="#fff533"/><rect x="602.03" y="158.43" width="31.69" height="31.69" fill="#b618e2"/><path d="M 602.03 158.43 A 31.69 31.69 0 0 1  633.72 190.12 L 602.03 158.43 A 31.69 31.69 0 0 0 633.72 190.12" fill="#20dfdf"/><rect x="633.7142857142858" y="126.74285714285715" width="63.371428571428574" height="63.371428571428574" fill="#ffffff"/><rect x="633.71" y="126.74" width="31.69" height="31.69" fill="#b618e2"/><path d="M 633.71 158.43 A 31.69 31.69 0 0 1  665.4000000000001 126.74 L 665.4000000000001 158.43" fill="#b618e2"/><rect x="665.4" y="126.74" width="31.69" height="31.69" fill="#fff533"/><path d="M 665.4 158.43 A 31.69 31.69 0 0 0 697.09 126.74 L 665.4 126.74" fill="#fff533"/><rect x="633.71" y="158.43" width="31.69" height="31.69" fill="#fff533"/><path d="M 633.71 190.12 A 31.69 31.69 0 0 1  665.4000000000001 158.43 L 665.4000000000001 190.12" fill="#b618e2"/><rect x="665.4" y="158.43" width="31.69" height="31.69" fill="#fff533"/><path d="M 665.4 158.43 A 31.69 31.69 0 0 0 697.09 190.12 L 697.09 158.43" fill="#fff533"/><rect x="697.0857142857143" y="126.74285714285715" width="63.371428571428574" height="63.371428571428574" fill="#ffffff"/><rect x="697.09" y="126.74" width="31.69" height="31.69" fill="#b618e2"/><path d="M 697.09 126.74 A 31.69 31.69 0 0 1  728.7800000000001 158.43 L 697.09 126.74 A 31.69 31.69 0 0 0 728.7800000000001 158.43" fill="#20dfdf"/><rect x="728.77" y="126.74" width="31.69" height="31.69" fill="#20dfdf"/><path d="M 728.77 158.43 A 31.69 31.69 0 0 0 760.46 126.74 L 728.77 126.74" fill="#fff533"/><rect x="697.09" y="158.43" width="31.69" height="31.69" fill="#20dfdf"/><path d="M 697.09 158.43 A 31.69 31.69 0 0 1  728.7800000000001 190.12 L 697.09 158.43 A 31.69 31.69 0 0 0 728.7800000000001 190.12" fill="#fff533"/><rect x="728.77" y="158.43" width="31.69" height="31.69" fill="#20dfdf"/><path d="M 728.77 190.12 A 31.69 31.69 0 0 1  760.46 158.43 L 728.77 190.12 A 31.69 31.69 0 0 0 760.46 158.43" fill="#20dfdf"/><rect x="0" y="190.11" width="63.37" height="63.37" fill="#fff533"/><path d="M 0 190.11 A 63.37 63.37 0 0 0 63.37 253.48000000000002 L 63.37 190.11" fill="#fff533"/><rect x="63.37" y="190.11" width="63.37" height="63.37" fill="#20dfdf"/><path d="M 63.37 253.48000000000002 A 63.37 63.37 0 0 1  126.74 190.11 L 126.74 253.48000000000002" fill="#fff533"/><rect x="126.74285714285715" y="190.11428571428573" width="63.371428571428574" height="63.371428571428574" fill="#ffffff"/><rect x="126.74" y="190.11" width="31.69" height="31.69" fill="#b618e2"/><path d="M 126.74 190.11 A 31.69 31.69 0 0 1 158.43 221.8 L 126.74 221.8" fill="#fff533"/><rect x="158.43" y="190.11" width="31.69" height="31.69" fill="#b618e2"/><path d="M 158.43 221.8 A 31.69 31.69 0 0 1  190.12 190.11 L 158.43 221.8 A 31.69 31.69 0 0 0 190.12 190.11" fill="#fff533"/><rect x="126.74" y="221.8" width="31.69" height="31.69" fill="#fff533"/><path d="M 126.74 221.8 A 31.69 31.69 0 0 1 158.43 253.49 L 126.74 253.49" fill="#b618e2"/><rect x="158.43" y="221.8" width="31.69" height="31.69" fill="#fff533"/><path d="M 158.43 253.49 A 31.69 31.69 0 0 0 190.12 221.8 L 158.43 221.8" fill="#20dfdf"/><rect x="190.11" y="190.11" width="63.37" height="63.37" fill="#fff533"/><path d="M 190.11 190.11 A 63.37 63.37 0 0 0 253.48000000000002 253.48000000000002 L 253.48000000000002 190.11" fill="#20dfdf"/><rect x="253.4857142857143" y="190.11428571428573" width="63.371428571428574" height="63.371428571428574" fill="#ffffff"/><rect x="253.49" y="190.11" width="31.69" height="31.69" fill="#20dfdf"/><path d="M 253.49 221.8 A 31.69 31.69 0 0 0 285.18 190.11 L 253.49 190.11" fill="#fff533"/><rect x="285.17" y="190.11" width="31.69" height="31.69" fill="#b618e2"/><path d="M 285.17 190.11 A 31.69 31.69 0 0 1  316.86 221.8 L 285.17 190.11 A 31.69 31.69 0 0 0 316.86 221.8" fill="#b618e2"/><rect x="253.49" y="221.8" width="31.69" height="31.69" fill="#fff533"/><path d="M 253.49 221.8 A 31.69 31.69 0 0 0 285.18 253.49 L 285.18 221.8" fill="#20dfdf"/><rect x="285.17" y="221.8" width="31.69" height="31.69" fill="#fff533"/><path d="M 285.17 253.49 A 31.69 31.69 0 0 0 316.86 221.8 L 285.17 221.8" fill="#20dfdf"/><rect x="316.86" y="190.11" width="63.37" height="63.37" fill="#b618e2"/><path d="M 316.86 190.11 A 63.37 63.37 0 0 1 380.23 253.48000000000002 L 316.86 253.48000000000002" fill="#b618e2"/><rect x="380.23" y="190.11" width="63.37" height="63.37" fill="#fff533"/><path d="M 380.23 190.11 A 63.37 63.37 0 0 1  443.6 253.48000000000002 L 380.23 190.11 A 63.37 63.37 0 0 0 443.6 253.48000000000002" fill="#fff533"/><rect x="443.6" y="190.11" width="63.37" height="63.37" fill="#fff533"/><path d="M 443.6 253.48000000000002 A 63.37 63.37 0 0 0 506.97 190.11 L 443.6 190.11" fill="#b618e2"/><rect x="506.9714285714286" y="190.11428571428573" width="63.371428571428574" height="63.371428571428574" fill="#ffffff"/><rect x="506.97" y="190.11" width="31.69" height="31.69" fill="#20dfdf"/><path d="M 506.97 190.11 A 31.69 31.69 0 0 1  538.6600000000001 221.8 L 506.97 190.11 A 31.69 31.69 0 0 0 538.6600000000001 221.8" fill="#fff533"/><rect x="538.66" y="190.11" width="31.69" height="31.69" fill="#20dfdf"/><path d="M 538.66 221.8 A 31.69 31.69 0 0 0 570.35 190.11 L 538.66 190.11" fill="#20dfdf"/><rect x="506.97" y="221.8" width="31.69" height="31.69" fill="#20dfdf"/><path d="M 506.97 253.49 A 31.69 31.69 0 0 1  538.6600000000001 221.8 L 506.97 253.49 A 31.69 31.69 0 0 0 538.6600000000001 221.8" fill="#b618e2"/><rect x="538.66" y="221.8" width="31.69" height="31.69" fill="#20dfdf"/><path d="M 538.66 253.49 A 31.69 31.69 0 0 1  570.35 221.8 L 570.35 253.49" fill="#fff533"/><rect x="570.3428571428572" y="190.11428571428573" width="63.371428571428574" height="63.371428571428574" fill="#ffffff"/><rect x="570.34" y="190.11" width="31.69" height="31.69" fill="#fff533"/><path d="M 570.34 190.11 A 31.69 31.69 0 0 1 602.0300000000001 221.8 L 570.34 221.8" fill="#fff533"/><rect x="602.03" y="190.11" width="31.69" height="31.69" fill="#20dfdf"/><path d="M 602.03 190.11 A 31.69 31.69 0 0 1 633.72 221.8 L 602.03 221.8" fill="#fff533"/><rect x="570.34" y="221.8" width="31.69" height="31.69" fill="#b618e2"/><path d="M 570.34 253.49 A 31.69 31.69 0 0 1  602.0300000000001 221.8 L 570.34 253.49 A 31.69 31.69 0 0 0 602.0300000000001 221.8" fill="#b618e2"/><rect x="602.03" y="221.8" width="31.69" height="31.69" fill="#fff533"/><path d="M 602.03 221.8 A 31.69 31.69 0 0 1  633.72 253.49 L 602.03 221.8 A 31.69 31.69 0 0 0 633.72 253.49" fill="#b618e2"/><rect x="633.7142857142858" y="190.11428571428573" width="63.371428571428574" height="63.371428571428574" fill="#ffffff"/><rect x="633.71" y="190.11" width="31.69" height="31.69" fill="#fff533"/><path d="M 633.71 221.8 A 31.69 31.69 0 0 1  665.4000000000001 190.11 L 665.4000000000001 221.8" fill="#fff533"/><rect x="665.4" y="190.11" width="31.69" height="31.69" fill="#20dfdf"/><path d="M 665.4 190.11 A 31.69 31.69 0 0 0 697.09 221.8 L 697.09 190.11" fill="#20dfdf"/><rect x="633.71" y="221.8" width="31.69" height="31.69" fill="#fff533"/><path d="M 633.71 253.49 A 31.69 31.69 0 0 1  665.4000000000001 221.8 L 665.4000000000001 253.49" fill="#20dfdf"/><rect x="665.4" y="221.8" width="31.69" height="31.69" fill="#b618e2"/><path d="M 665.4 253.49 A 31.69 31.69 0 0 1  697.09 221.8 L 697.09 253.49" fill="#20dfdf"/><rect x="697.0857142857143" y="190.11428571428573" width="63.371428571428574" height="63.371428571428574" fill="#ffffff"/><rect x="697.09" y="190.11" width="31.69" height="31.69" fill="#fff533"/><path d="M 697.09 190.11 A 31.69 31.69 0 0 0 728.7800000000001 221.8 L 728.7800000000001 190.11" fill="#20dfdf"/><rect x="728.77" y="190.11" width="31.69" height="31.69" fill="#fff533"/><path d="M 728.77 190.11 A 31.69 31.69 0 0 0 760.46 221.8 L 760.46 190.11" fill="#fff533"/><rect x="697.09" y="221.8" width="31.69" height="31.69" fill="#b618e2"/><path d="M 697.09 253.49 A 31.69 31.69 0 0 1  728.7800000000001 221.8 L 697.09 253.49 A 31.69 31.69 0 0 0 728.7800000000001 221.8" fill="#b618e2"/><rect x="728.77" y="221.8" width="31.69" height="31.69" fill="#b618e2"/><path d="M 728.77 221.8 A 31.69 31.69 0 0 1  760.46 253.49 L 728.77 221.8 A 31.69 31.69 0 0 0 760.46 253.49" fill="#b618e2"/><rect x="0" y="253.49" width="63.37" height="63.37" fill="#20dfdf"/><path d="M 0 253.49 A 63.37 63.37 0 0 0 63.37 316.86 L 63.37 253.49" fill="#b618e2"/><rect x="63.371428571428574" y="253.4857142857143" width="63.371428571428574" height="63.371428571428574" fill="#ffffff"/><rect x="63.37" y="253.49" width="31.69" height="31.69" fill="#fff533"/><path d="M 63.37 253.49 A 31.69 31.69 0 0 0 95.06 285.18 L 95.06 253.49" fill="#20dfdf"/><rect x="95.06" y="253.49" width="31.69" height="31.69" fill="#20dfdf"/><path d="M 95.06 285.18 A 31.69 31.69 0 0 1  126.75 253.49 L 126.75 285.18" fill="#20dfdf"/><rect x="63.37" y="285.17" width="31.69" height="31.69" fill="#b618e2"/><path d="M 63.37 285.17 A 31.69 31.69 0 0 1  95.06 316.86 L 63.37 285.17 A 31.69 31.69 0 0 0 95.06 316.86" fill="#20dfdf"/><rect x="95.06" y="285.17" width="31.69" height="31.69" fill="#20dfdf"/><path d="M 95.06 316.86 A 31.69 31.69 0 0 0 126.75 285.17 L 95.06 285.17" fill="#b618e2"/><rect x="126.74285714285715" y="253.4857142857143" width="63.371428571428574" height="63.371428571428574" fill="#ffffff"/><rect x="126.74" y="253.49" width="31.69" height="31.69" fill="#b618e2"/><path d="M 126.74 253.49 A 31.69 31.69 0 0 1  158.43 285.18 L 126.74 253.49 A 31.69 31.69 0 0 0 158.43 285.18" fill="#b618e2"/><rect x="158.43" y="253.49" width="31.69" height="31.69" fill="#b618e2"/><path d="M 158.43 253.49 A 31.69 31.69 0 0 1 190.12 285.18 L 158.43 285.18" fill="#20dfdf"/><rect x="126.74" y="285.17" width="31.69" height="31.69" fill="#fff533"/><path d="M 126.74 285.17 A 31.69 31.69 0 0 1  158.43 316.86 L 126.74 285.17 A 31.69 31.69 0 0 0 158.43 316.86" fill="#b618e2"/><rect x="158.43" y="285.17" width="31.69" height="31.69" fill="#fff533"/><path d="M 158.43 316.86 A 31.69 31.69 0 0 1  190.12 285.17 L 190.12 316.86" fill="#b618e2"/><rect x="190.11428571428573" y="253.4857142857143" width="63.371428571428574" height="63.371428571428574" fill="#ffffff"/><rect x="190.11" y="253.49" width="31.69" height="31.69" fill="#fff533"/><path d="M 190.11 253.49 A 31.69 31.69 0 0 1 221.8 285.18 L 190.11 285.18" fill="#b618e2"/><rect x="221.8" y="253.49" width="31.69" height="31.69" fill="#20dfdf"/><path d="M 221.8 285.18 A 31.69 31.69 0 0 1  253.49 253.49 L 253.49 285.18" fill="#fff533"/><rect x="190.11" y="285.17" width="31.69" height="31.69" fill="#20dfdf"/><path d="M 190.11 316.86 A 31.69 31.69 0 0 1  221.8 285.17 L 190.11 316.86 A 31.69 31.69 0 0 0 221.8 285.17" fill="#fff533"/><rect x="221.8" y="285.17" width="31.69" height="31.69" fill="#b618e2"/><path d="M 221.8 316.86 A 31.69 31.69 0 0 1  253.49 285.17 L 221.8 316.86 A 31.69 31.69 0 0 0 253.49 285.17" fill="#20dfdf"/><rect x="253.49" y="253.49" width="63.37" height="63.37" fill="#20dfdf"/><path d="M 253.49 316.86 A 63.37 63.37 0 0 1  316.86 253.49 L 316.86 316.86" fill="#fff533"/><rect x="316.8571428571429" y="253.4857142857143" width="63.371428571428574" height="63.371428571428574" fill="#ffffff"/><rect x="316.86" y="253.49" width="31.69" height="31.69" fill="#b618e2"/><path d="M 316.86 285.18 A 31.69 31.69 0 0 0 348.55 253.49 L 316.86 253.49" fill="#b618e2"/><rect x="348.54" y="253.49" width="31.69" height="31.69" fill="#b618e2"/><path d="M 348.54 253.49 A 31.69 31.69 0 0 1  380.23 285.18 L 348.54 253.49 A 31.69 31.69 0 0 0 380.23 285.18" fill="#b618e2"/><rect x="316.86" y="285.17" width="31.69" height="31.69" fill="#20dfdf"/><path d="M 316.86 316.86 A 31.69 31.69 0 0 1  348.55 285.17 L 316.86 316.86 A 31.69 31.69 0 0 0 348.55 285.17" fill="#fff533"/><rect x="348.54" y="285.17" width="31.69" height="31.69" fill="#fff533"/><path d="M 348.54 285.17 A 31.69 31.69 0 0 0 380.23 316.86 L 380.23 285.17" fill="#20dfdf"/><rect x="380.23" y="253.49" width="63.37" height="63.37" fill="#20dfdf"/><path d="M 380.23 253.49 A 63.37 63.37 0 0 0 443.6 316.86 L 443.6 253.49" fill="#fff533"/><rect x="443.6" y="253.4857142857143" width="63.371428571428574" height="63.371428571428574" fill="#ffffff"/><rect x="443.6" y="253.49" width="31.69" height="31.69" fill="#b618e2"/><path d="M 443.6 285.18 A 31.69 31.69 0 0 1  475.29 253.49 L 443.6 285.18 A 31.69 31.69 0 0 0 475.29 253.49" fill="#fff533"/><rect x="475.29" y="253.49" width="31.69" height="31.69" fill="#b618e2"/><path d="M 475.29 285.18 A 31.69 31.69 0 0 1  506.98 253.49 L 475.29 285.18 A 31.69 31.69 0 0 0 506.98 253.49" fill="#20dfdf"/><rect x="443.6" y="285.17" width="31.69" height="31.69" fill="#b618e2"/><path d="M 443.6 285.17 A 31.69 31.69 0 0 1  475.29 316.86 L 443.6 285.17 A 31.69 31.69 0 0 0 475.29 316.86" fill="#b618e2"/><rect x="475.29" y="285.17" width="31.69" height="31.69" fill="#20dfdf"/><path d="M 475.29 285.17 A 31.69 31.69 0 0 1 506.98 316.86 L 475.29 316.86" fill="#b618e2"/><rect x="506.97" y="253.49" width="63.37" height="63.37" fill="#fff533"/><path d="M 506.97 316.86 A 63.37 63.37 0 0 1  570.34 253.49 L 506.97 316.86 A 63.37 63.37 0 0 0 570.34 253.49" fill="#b618e2"/><rect x="570.3428571428572" y="253.4857142857143" width="63.371428571428574" height="63.371428571428574" fill="#ffffff"/><rect x="570.34" y="253.49" width="31.69" height="31.69" fill="#20dfdf"/><path d="M 570.34 253.49 A 31.69 31.69 0 0 1 602.0300000000001 285.18 L 570.34 285.18" fill="#b618e2"/><rect x="602.03" y="253.49" width="31.69" height="31.69" fill="#b618e2"/><path d="M 602.03 253.49 A 31.69 31.69 0 0 1 633.72 285.18 L 602.03 285.18" fill="#b618e2"/><rect x="570.34" y="285.17" width="31.69" height="31.69" fill="#b618e2"/><path d="M 570.34 316.86 A 31.69 31.69 0 0 0 602.0300000000001 285.17 L 570.34 285.17" fill="#fff533"/><rect x="602.03" y="285.17" width="31.69" height="31.69" fill="#b618e2"/><path d="M 602.03 285.17 A 31.69 31.69 0 0 0 633.72 316.86 L 633.72 285.17" fill="#20dfdf"/><rect x="633.7142857142858" y="253.4857142857143" width="63.371428571428574" height="63.371428571428574" fill="#ffffff"/><rect x="633.71" y="253.49" width="31.69" height="31.69" fill="#fff533"/><path d="M 633.71 285.18 A 31.69 31.69 0 0 1  665.4000000000001 253.49 L 633.71 285.18 A 31.69 31.69 0 0 0 665.4000000000001 253.49" fill="#20dfdf"/><rect x="665.4" y="253.49" width="31.69" height="31.69" fill="#fff533"/><path d="M 665.4 285.18 A 31.69 31.69 0 0 0 697.09 253.49 L 665.4 253.49" fill="#b618e2"/><rect x="633.71" y="285.17" width="31.69" height="31.69" fill="#b618e2"/><path d="M 633.71 285.17 A 31.69 31.69 0 0 1  665.4000000000001 316.86 L 633.71 285.17 A 31.69 31.69 0 0 0 665.4000000000001 316.86" fill="#20dfdf"/><rect x="665.4" y="285.17" width="31.69" height="31.69" fill="#20dfdf"/><path d="M 665.4 285.17 A 31.69 31.69 0 0 1 697.09 316.86 L 665.4 316.86" fill="#fff533"/><rect x="697.09" y="253.49" width="63.37" height="63.37" fill="#b618e2"/><path d="M 697.09 316.86 A 63.37 63.37 0 0 0 760.46 253.49 L 697.09 253.49" fill="#20dfdf"/><rect x="0" y="316.8571428571429" width="63.371428571428574" height="63.371428571428574" fill="#ffffff"/><rect x="0" y="316.86" width="31.69" height="31.69" fill="#fff533"/><path d="M 0 348.55 A 31.69 31.69 0 0 0 31.69 316.86 L 0 316.86" fill="#20dfdf"/><rect x="31.69" y="316.86" width="31.69" height="31.69" fill="#fff533"/><path d="M 31.69 316.86 A 31.69 31.69 0 0 0 63.38 348.55 L 63.38 316.86" fill="#b618e2"/><rect x="0" y="348.54" width="31.69" height="31.69" fill="#20dfdf"/><path d="M 0 380.23 A 31.69 31.69 0 0 1  31.69 348.54 L 31.69 380.23" fill="#b618e2"/><rect x="31.69" y="348.54" width="31.69" height="31.69" fill="#fff533"/><path d="M 31.69 348.54 A 31.69 31.69 0 0 1  63.38 380.23 L 31.69 348.54 A 31.69 31.69 0 0 0 63.38 380.23" fill="#b618e2"/><rect x="63.371428571428574" y="316.8571428571429" width="63.371428571428574" height="63.371428571428574" fill="#ffffff"/><rect x="63.37" y="316.86" width="31.69" height="31.69" fill="#fff533"/><path d="M 63.37 348.55 A 31.69 31.69 0 0 1  95.06 316.86 L 63.37 348.55 A 31.69 31.69 0 0 0 95.06 316.86" fill="#b618e2"/><rect x="95.06" y="316.86" width="31.69" height="31.69" fill="#20dfdf"/><path d="M 95.06 348.55 A 31.69 31.69 0 0 0 126.75 316.86 L 95.06 316.86" fill="#fff533"/><rect x="63.37" y="348.54" width="31.69" height="31.69" fill="#fff533"/><path d="M 63.37 348.54 A 31.69 31.69 0 0 1 95.06 380.23 L 63.37 380.23" fill="#20dfdf"/><rect x="95.06" y="348.54" width="31.69" height="31.69" fill="#fff533"/><path d="M 95.06 348.54 A 31.69 31.69 0 0 1 126.75 380.23 L 95.06 380.23" fill="#b618e2"/><rect x="126.74285714285715" y="316.8571428571429" width="63.371428571428574" height="63.371428571428574" fill="#ffffff"/><rect x="126.74" y="316.86" width="31.69" height="31.69" fill="#20dfdf"/><path d="M 126.74 316.86 A 31.69 31.69 0 0 1 158.43 348.55 L 126.74 348.55" fill="#20dfdf"/><rect x="158.43" y="316.86" width="31.69" height="31.69" fill="#b618e2"/><path d="M 158.43 316.86 A 31.69 31.69 0 0 1  190.12 348.55 L 158.43 316.86 A 31.69 31.69 0 0 0 190.12 348.55" fill="#20dfdf"/><rect x="126.74" y="348.54" width="31.69" height="31.69" fill="#b618e2"/><path d="M 126.74 348.54 A 31.69 31.69 0 0 0 158.43 380.23 L 158.43 348.54" fill="#b618e2"/><rect x="158.43" y="348.54" width="31.69" height="31.69" fill="#fff533"/><path d="M 158.43 348.54 A 31.69 31.69 0 0 1 190.12 380.23 L 158.43 380.23" fill="#20dfdf"/><rect x="190.11428571428573" y="316.8571428571429" width="63.371428571428574" height="63.371428571428574" fill="#ffffff"/><rect x="190.11" y="316.86" width="31.69" height="31.69" fill="#20dfdf"/><path d="M 190.11 316.86 A 31.69 31.69 0 0 1  221.8 348.55 L 190.11 316.86 A 31.69 31.69 0 0 0 221.8 348.55" fill="#20dfdf"/><rect x="221.8" y="316.86" width="31.69" height="31.69" fill="#20dfdf"/><path d="M 221.8 348.55 A 31.69 31.69 0 0 1  253.49 316.86 L 253.49 348.55" fill="#fff533"/><rect x="190.11" y="348.54" width="31.69" height="31.69" fill="#fff533"/><path d="M 190.11 348.54 A 31.69 31.69 0 0 1  221.8 380.23 L 190.11 348.54 A 31.69 31.69 0 0 0 221.8 380.23" fill="#b618e2"/><rect x="221.8" y="348.54" width="31.69" height="31.69" fill="#20dfdf"/><path d="M 221.8 348.54 A 31.69 31.69 0 0 1 253.49 380.23 L 221.8 380.23" fill="#fff533"/><rect x="253.4857142857143" y="316.8571428571429" width="63.371428571428574" height="63.371428571428574" fill="#ffffff"/><rect x="253.49" y="316.86" width="31.69" height="31.69" fill="#fff533"/><path d="M 253.49 348.55 A 31.69 31.69 0 0 1  285.18 316.86 L 285.18 348.55" fill="#fff533"/><rect x="285.17" y="316.86" width="31.69" height="31.69" fill="#fff533"/><path d="M 285.17 316.86 A 31.69 31.69 0 0 1  316.86 348.55 L 285.17 316.86 A 31.69 31.69 0 0 0 316.86 348.55" fill="#20dfdf"/><rect x="253.49" y="348.54" width="31.69" height="31.69" fill="#fff533"/><path d="M 253.49 348.54 A 31.69 31.69 0 0 1  285.18 380.23 L 253.49 348.54 A 31.69 31.69 0 0 0 285.18 380.23" fill="#fff533"/><rect x="285.17" y="348.54" width="31.69" height="31.69" fill="#20dfdf"/><path d="M 285.17 380.23 A 31.69 31.69 0 0 0 316.86 348.54 L 285.17 348.54" fill="#b618e2"/><rect x="316.86" y="316.86" width="63.37" height="63.37" fill="#b618e2"/><path d="M 316.86 380.23 A 63.37 63.37 0 0 1  380.23 316.86 L 316.86 380.23 A 63.37 63.37 0 0 0 380.23 316.86" fill="#20dfdf"/><rect x="380.22857142857146" y="316.8571428571429" width="63.371428571428574" height="63.371428571428574" fill="#ffffff"/><rect x="380.23" y="316.86" width="31.69" height="31.69" fill="#b618e2"/><path d="M 380.23 348.55 A 31.69 31.69 0 0 1  411.92 316.86 L 411.92 348.55" fill="#20dfdf"/><rect x="411.91" y="316.86" width="31.69" height="31.69" fill="#fff533"/><path d="M 411.91 348.55 A 31.69 31.69 0 0 0 443.6 316.86 L 411.91 316.86" fill="#20dfdf"/><rect x="380.23" y="348.54" width="31.69" height="31.69" fill="#20dfdf"/><path d="M 380.23 348.54 A 31.69 31.69 0 0 0 411.92 380.23 L 411.92 348.54" fill="#b618e2"/><rect x="411.91" y="348.54" width="31.69" height="31.69" fill="#b618e2"/><path d="M 411.91 380.23 A 31.69 31.69 0 0 1  443.6 348.54 L 443.6 380.23" fill="#20dfdf"/><rect x="443.6" y="316.86" width="63.37" height="63.37" fill="#fff533"/><path d="M 443.6 316.86 A 63.37 63.37 0 0 0 506.97 380.23 L 506.97 316.86" fill="#fff533"/><rect x="506.97" y="316.86" width="63.37" height="63.37" fill="#20dfdf"/><path d="M 506.97 380.23 A 63.37 63.37 0 0 1  570.34 316.86 L 506.97 380.23 A 63.37 63.37 0 0 0 570.34 316.86" fill="#b618e2"/><rect x="570.3428571428572" y="316.8571428571429" width="63.371428571428574" height="63.371428571428574" fill="#ffffff"/><rect x="570.34" y="316.86" width="31.69" height="31.69" fill="#20dfdf"/><path d="M 570.34 316.86 A 31.69 31.69 0 0 0 602.0300000000001 348.55 L 602.0300000000001 316.86" fill="#20dfdf"/><rect x="602.03" y="316.86" width="31.69" height="31.69" fill="#b618e2"/><path d="M 602.03 316.86 A 31.69 31.69 0 0 0 633.72 348.55 L 633.72 316.86" fill="#20dfdf"/><rect x="570.34" y="348.54" width="31.69" height="31.69" fill="#20dfdf"/><path d="M 570.34 348.54 A 31.69 31.69 0 0 1  602.0300000000001 380.23 L 570.34 348.54 A 31.69 31.69 0 0 0 602.0300000000001 380.23" fill="#fff533"/><rect x="602.03" y="348.54" width="31.69" height="31.69" fill="#20dfdf"/><path d="M 602.03 380.23 A 31.69 31.69 0 0 1  633.72 348.54 L 602.03 380.23 A 31.69 31.69 0 0 0 633.72 348.54" fill="#b618e2"/><rect x="633.71" y="316.86" width="63.37" height="63.37" fill="#fff533"/><path d="M 633.71 316.86 A 63.37 63.37 0 0 1  697.08 380.23 L 633.71 316.86 A 63.37 63.37 0 0 0 697.08 380.23" fill="#20dfdf"/><rect x="697.09" y="316.86" width="63.37" height="63.37" fill="#b618e2"/><path d="M 697.09 380.23 A 63.37 63.37 0 0 0 760.46 316.86 L 697.09 316.86" fill="#fff533"/><rect x="0" y="380.22857142857146" width="63.371428571428574" height="63.371428571428574" fill="#ffffff"/><rect x="0" y="380.23" width="31.69" height="31.69" fill="#fff533"/><path d="M 0 380.23 A 31.69 31.69 0 0 1  31.69 411.92 L 0 380.23 A 31.69 31.69 0 0 0 31.69 411.92" fill="#20dfdf"/><rect x="31.69" y="380.23" width="31.69" height="31.69" fill="#fff533"/><path d="M 31.69 411.92 A 31.69 31.69 0 0 0 63.38 380.23 L 31.69 380.23" fill="#20dfdf"/><rect x="0" y="411.91" width="31.69" height="31.69" fill="#20dfdf"/><path d="M 0 443.6 A 31.69 31.69 0 0 1  31.69 411.91 L 31.69 443.6" fill="#20dfdf"/><rect x="31.69" y="411.91" width="31.69" height="31.69" fill="#b618e2"/><path d="M 31.69 443.6 A 31.69 31.69 0 0 1  63.38 411.91 L 63.38 443.6" fill="#fff533"/><rect x="63.37" y="380.23" width="63.37" height="63.37" fill="#20dfdf"/><path d="M 63.37 443.6 A 63.37 63.37 0 0 0 126.74 380.23 L 63.37 380.23" fill="#b618e2"/><rect x="126.74285714285715" y="380.22857142857146" width="63.371428571428574" height="63.371428571428574" fill="#ffffff"/><rect x="126.74" y="380.23" width="31.69" height="31.69" fill="#20dfdf"/><path d="M 126.74 411.92 A 31.69 31.69 0 0 0 158.43 380.23 L 126.74 380.23" fill="#20dfdf"/><rect x="158.43" y="380.23" width="31.69" height="31.69" fill="#20dfdf"/><path d="M 158.43 380.23 A 31.69 31.69 0 0 1  190.12 411.92 L 158.43 380.23 A 31.69 31.69 0 0 0 190.12 411.92" fill="#fff533"/><rect x="126.74" y="411.91" width="31.69" height="31.69" fill="#b618e2"/><path d="M 126.74 411.91 A 31.69 31.69 0 0 1 158.43 443.6 L 126.74 443.6" fill="#fff533"/><rect x="158.43" y="411.91" width="31.69" height="31.69" fill="#20dfdf"/><path d="M 158.43 411.91 A 31.69 31.69 0 0 0 190.12 443.6 L 190.12 411.91" fill="#20dfdf"/><rect x="190.11" y="380.23" width="63.37" height="63.37" fill="#20dfdf"/><path d="M 190.11 380.23 A 63.37 63.37 0 0 0 253.48000000000002 443.6 L 253.48000000000002 380.23" fill="#b618e2"/><rect x="253.49" y="380.23" width="63.37" height="63.37" fill="#b618e2"/><path d="M 253.49 443.6 A 63.37 63.37 0 0 0 316.86 380.23 L 253.49 380.23" fill="#20dfdf"/><rect x="316.8571428571429" y="380.22857142857146" width="63.371428571428574" height="63.371428571428574" fill="#ffffff"/><rect x="316.86" y="380.23" width="31.69" height="31.69" fill="#b618e2"/><path d="M 316.86 411.92 A 31.69 31.69 0 0 0 348.55 380.23 L 316.86 380.23" fill="#fff533"/><rect x="348.54" y="380.23" width="31.69" height="31.69" fill="#fff533"/><path d="M 348.54 380.23 A 31.69 31.69 0 0 1  380.23 411.92 L 348.54 380.23 A 31.69 31.69 0 0 0 380.23 411.92" fill="#fff533"/><rect x="316.86" y="411.91" width="31.69" height="31.69" fill="#20dfdf"/><path d="M 316.86 411.91 A 31.69 31.69 0 0 1  348.55 443.6 L 316.86 411.91 A 31.69 31.69 0 0 0 348.55 443.6" fill="#20dfdf"/><rect x="348.54" y="411.91" width="31.69" height="31.69" fill="#fff533"/><path d="M 348.54 443.6 A 31.69 31.69 0 0 0 380.23 411.91 L 348.54 411.91" fill="#b618e2"/><rect x="380.23" y="380.23" width="63.37" height="63.37" fill="#b618e2"/><path d="M 380.23 380.23 A 63.37 63.37 0 0 1  443.6 443.6 L 380.23 380.23 A 63.37 63.37 0 0 0 443.6 443.6" fill="#b618e2"/><rect x="443.6" y="380.22857142857146" width="63.371428571428574" height="63.371428571428574" fill="#ffffff"/><rect x="443.6" y="380.23" width="31.69" height="31.69" fill="#b618e2"/><path d="M 443.6 411.92 A 31.69 31.69 0 0 1  475.29 380.23 L 443.6 411.92 A 31.69 31.69 0 0 0 475.29 380.23" fill="#20dfdf"/><rect x="475.29" y="380.23" width="31.69" height="31.69" fill="#fff533"/><path d="M 475.29 380.23 A 31.69 31.69 0 0 1 506.98 411.92 L 475.29 411.92" fill="#fff533"/><rect x="443.6" y="411.91" width="31.69" height="31.69" fill="#20dfdf"/><path d="M 443.6 443.6 A 31.69 31.69 0 0 1  475.29 411.91 L 475.29 443.6" fill="#fff533"/><rect x="475.29" y="411.91" width="31.69" height="31.69" fill="#fff533"/><path d="M 475.29 411.91 A 31.69 31.69 0 0 1 506.98 443.6 L 475.29 443.6" fill="#fff533"/><rect x="506.97" y="380.23" width="63.37" height="63.37" fill="#fff533"/><path d="M 506.97 443.6 A 63.37 63.37 0 0 0 570.34 380.23 L 506.97 380.23" fill="#20dfdf"/><rect x="570.34" y="380.23" width="63.37" height="63.37" fill="#20dfdf"/><path d="M 570.34 443.6 A 63.37 63.37 0 0 1  633.71 380.23 L 633.71 443.6" fill="#fff533"/><rect x="633.71" y="380.23" width="63.37" height="63.37" fill="#b618e2"/><path d="M 633.71 443.6 A 63.37 63.37 0 0 0 697.08 380.23 L 633.71 380.23" fill="#20dfdf"/><rect x="697.09" y="380.23" width="63.37" height="63.37" fill="#b618e2"/><path d="M 697.09 380.23 A 63.37 63.37 0 0 1  760.46 443.6 L 697.09 380.23 A 63.37 63.37 0 0 0 760.46 443.6" fill="#20dfdf"/></g></svg>